<svg version="1.1" id="Layer_1" xmlns="http://www.w3.org/2000/svg" xmlns:xlink="http://www.w3.org/1999/xlink" x="0px" y="0px"
	 width="100%" viewBox="0 0 588 411" enable-background="new 0 0 588 411" xml:space="preserve">
<path fill="#00E1FF" opacity="1.000000" stroke="none" 
	d="
M292.000000,1.000000 
	C304.020905,1.000000 316.041779,1.000000 328.531403,1.468657 
	C329.000122,22.654467 329.000122,43.371620 329.000122,64.088776 
	C329.333405,64.088913 329.666718,64.089050 330.000000,64.089188 
	C330.000000,43.059460 330.000000,22.029730 330.000000,1.000000 
	C364.687561,1.000000 399.375122,1.000000 434.623840,1.323693 
	C459.437225,25.913990 483.694733,50.175320 507.925201,74.463608 
	C509.066162,75.607292 510.279358,76.851593 510.918823,78.289261 
	C512.587280,82.040474 515.308105,84.063866 519.279968,85.069160 
	C525.924805,86.751007 531.119873,90.504105 533.580139,97.168129 
	C534.739502,100.308556 534.983521,103.838303 536.423340,106.813751 
	C540.059387,114.327965 537.383667,119.001648 529.054321,119.001793 
	C517.303406,119.001999 505.552460,119.001846 493.801544,119.001846 
	C493.798737,119.429771 493.795929,119.857697 493.793152,120.285622 
	C498.072876,120.285622 502.355743,120.183281 506.631561,120.312866 
	C511.414612,120.457840 516.195251,120.757942 520.968994,121.100273 
	C523.314880,121.268494 526.449341,120.824867 527.843628,122.132751 
	C534.986389,128.832840 541.679626,136.012146 548.527954,143.025986 
	C549.941650,144.473938 551.346497,145.930573 553.196289,147.837769 
	C549.842529,147.995316 547.479736,148.106308 545.116882,148.217300 
	C545.039795,148.838882 544.962646,149.460464 544.885498,150.082047 
	C546.545776,150.420486 548.209106,151.050369 549.865784,151.033325 
	C552.807251,151.003067 555.004944,151.121002 557.504578,153.745377 
	C567.701233,164.451080 578.452820,174.628159 589.000000,185.000000 
	C589.000000,232.687561 589.000000,280.375122 588.533813,328.531372 
	C585.574341,329.000092 583.081055,328.999908 580.587769,329.000092 
	C569.572327,329.000854 564.000122,334.514038 563.999939,345.412231 
	C563.999878,352.227203 564.000061,359.042145 564.000000,365.857117 
	C563.999939,373.207947 558.521912,380.917389 551.773315,384.292664 
	C549.999512,385.179840 549.204956,388.060486 548.009033,390.054657 
	C547.248230,391.323181 546.811218,393.547150 545.828308,393.803009 
	C536.305786,396.281555 533.505188,404.414398 530.000000,412.000000 
	C483.979095,412.000000 437.958221,412.000000 391.468628,411.535828 
	C391.226379,403.580933 392.311157,395.778442 383.394226,391.867645 
	C381.516968,391.044312 379.799225,389.857300 378.005524,388.381073 
	C378.003082,371.352570 378.003082,354.780884 378.003082,338.000153 
	C361.128784,338.000153 345.137360,337.987610 329.145966,338.009094 
	C325.216034,338.014374 321.937500,336.866730 319.135101,332.868530 
	C329.234314,332.868530 338.565155,332.868530 347.895996,332.868530 
	C341.386261,331.785004 334.869507,331.893524 328.358856,331.741089 
	C324.882935,331.659729 320.109894,332.480774 318.151642,330.588043 
	C300.431885,313.460907 283.202850,295.825989 265.839935,278.329987 
	C264.661163,277.142151 263.562622,275.874725 261.526093,273.668640 
	C273.924652,273.668640 284.837433,273.668640 295.508575,273.668640 
	C295.508575,206.560455 295.508575,139.950806 295.508575,73.000946 
	C276.768372,73.000946 258.293427,72.963661 239.818970,73.039207 
	C236.883942,73.051201 233.951004,73.570915 230.789200,73.554352 
	C229.067581,73.004684 227.573837,72.756569 225.834946,72.467728 
	C227.015060,69.380699 228.014801,66.765511 229.321274,64.003654 
	C245.358475,48.131432 261.109283,32.426128 276.807831,16.668734 
	C281.941833,11.515507 286.939819,6.226771 292.000000,1.000000 
M524.411194,226.536163 
	C524.437073,225.665909 524.462952,224.795654 524.488831,223.925415 
	C523.992554,224.281250 523.496277,224.637070 522.148376,224.992935 
	C515.992249,224.064484 517.034851,228.430252 516.517944,232.638962 
	C516.633484,236.901169 516.912354,241.166824 516.822571,245.424698 
	C516.714355,250.553482 516.318542,255.677246 515.996887,260.800018 
	C515.815002,263.698608 516.929565,265.054779 520.005676,265.027679 
	C530.648560,264.933899 541.293701,264.914490 551.935913,265.038086 
	C555.409851,265.078461 556.479797,263.362396 555.905334,260.398193 
	C555.197998,256.748993 553.634766,253.838181 549.104614,253.947647 
	C547.343933,253.990189 544.770813,254.034409 543.939758,252.988113 
	C540.689819,248.896530 538.918579,250.608826 536.500793,253.817001 
	C534.460571,256.524200 531.983215,259.635773 527.781677,257.100616 
	C522.387939,253.846115 519.665100,248.169495 520.980652,243.952576 
	C522.203186,240.033813 523.002258,235.982941 523.991638,231.159119 
	C523.991028,229.772842 523.990356,228.386581 524.411194,226.536163 
M516.207947,322.410828 
	C518.324097,321.937836 521.692322,322.114990 522.335144,320.876984 
	C524.832764,316.067017 526.464600,310.807434 528.692261,305.002289 
	C525.963562,305.002289 523.837219,305.156189 521.741150,304.970123 
	C517.443604,304.588562 515.660217,306.373840 515.955994,310.708374 
	C516.203369,314.333679 516.040894,317.987000 516.207947,322.410828 
M436.388763,134.214081 
	C433.366211,134.607635 430.343689,135.001190 427.321136,135.394745 
	C428.705048,137.587173 430.087311,139.780655 431.476807,141.969528 
	C431.562897,142.105164 431.685242,142.254913 431.825867,142.313126 
	C433.482788,142.999222 435.146423,143.669067 436.808319,144.343201 
	C437.237396,142.406143 437.909790,140.481094 438.006256,138.527618 
	C438.066193,137.313507 437.253906,136.056335 436.388763,134.214081 
M377.997986,290.732605 
	C377.395447,286.561707 372.984924,285.519897 366.642792,288.715912 
	C370.069458,291.246368 374.157135,292.917694 375.894806,295.940125 
	C377.520111,298.767090 376.653534,303.026672 376.883698,306.655731 
	C377.255585,306.658417 377.627472,306.661102 377.999359,306.663788 
	C377.999359,301.669403 377.999359,296.675018 377.997986,290.732605 
M470.865570,119.003906 
	C469.940918,119.571175 469.016266,120.138451 468.091614,120.705719 
	C469.641174,121.010651 471.213928,121.656242 472.735657,121.552612 
	C476.379059,121.304482 479.995850,120.681007 483.629883,120.266022 
	C484.309021,120.188461 485.018463,120.376328 485.713898,120.441704 
	C485.735474,119.961861 485.757050,119.482018 485.778625,119.002174 
	C481.116760,119.002174 476.454895,119.002174 470.865570,119.003906 
z"/>
<path fill="#FFFFFF" opacity="1.000000" stroke="none" 
	d="
M378.007965,388.837891 
	C379.799225,389.857300 381.516968,391.044312 383.394226,391.867645 
	C392.311157,395.778442 391.226379,403.580933 390.999939,411.535828 
	C261.052032,412.000000 131.104095,412.000000 1.078071,412.000000 
	C1.078071,275.106934 1.078071,138.213821 1.078071,1.000000 
	C97.687325,1.000000 194.375000,1.000000 291.531342,1.000000 
	C286.939819,6.226771 281.941833,11.515507 276.807831,16.668734 
	C261.109283,32.426128 245.358475,48.131432 228.856171,63.946213 
	C201.560501,64.035431 175.036667,64.035431 148.051743,64.035431 
	C148.051743,81.487167 148.051743,98.235519 147.792221,115.193619 
	C145.985886,117.138161 144.520187,118.953995 142.880234,120.595741 
	C112.767220,150.741699 82.646019,180.879517 52.463478,210.955765 
	C51.071579,212.342773 49.089302,213.137283 47.381989,214.207748 
	C47.473137,214.982544 47.564285,215.757324 47.655434,216.532120 
	C49.277832,217.695541 51.098495,218.660172 52.493450,220.051620 
	C82.778870,250.260468 113.027260,280.506500 143.232437,310.795563 
	C144.699738,312.266907 145.707367,314.196655 146.467865,315.942017 
	C132.320694,315.971069 118.634727,315.971069 103.841415,315.971069 
	C133.468155,345.589264 162.096680,374.209503 190.541901,402.646515 
	C200.448883,392.844116 210.237076,383.136353 220.051498,373.455200 
	C229.050705,364.578247 238.078110,355.729889 247.553772,346.915466 
	C265.081268,346.645752 282.147125,346.253113 299.215179,346.039764 
	C310.677856,345.896454 322.145782,346.126526 333.606934,345.931122 
	C337.029724,345.872772 339.494720,346.818695 341.904175,349.294525 
	C351.289551,358.938477 361.018860,368.250000 370.319672,377.972656 
	C373.353363,381.143890 375.471252,385.191223 378.007965,388.837891 
z"/>
<path fill="#FFFFFF" opacity="1.000000" stroke="none" 
	d="
M589.000000,184.531342 
	C578.452820,174.628159 567.701233,164.451080 557.504578,153.745377 
	C555.004944,151.121002 552.807251,151.003067 549.865784,151.033325 
	C548.209106,151.050369 546.545776,150.420486 544.885498,150.082047 
	C544.962646,149.460464 545.039795,148.838882 545.116882,148.217300 
	C547.479736,148.106308 549.842529,147.995316 553.196289,147.837769 
	C551.346497,145.930573 549.941650,144.473938 548.527954,143.025986 
	C541.679626,136.012146 534.986389,128.832840 527.843628,122.132751 
	C526.449341,120.824867 523.314880,121.268494 520.968994,121.100273 
	C516.195251,120.757942 511.414612,120.457840 506.631561,120.312866 
	C502.355743,120.183281 498.072876,120.285622 493.793152,120.285622 
	C493.795929,119.857697 493.798737,119.429771 493.801544,119.001846 
	C505.552460,119.001846 517.303406,119.001999 529.054321,119.001793 
	C537.383667,119.001648 540.059387,114.327965 536.423340,106.813751 
	C534.983521,103.838303 534.739502,100.308556 533.580139,97.168129 
	C531.119873,90.504105 525.924805,86.751007 519.279968,85.069160 
	C515.308105,84.063866 512.587280,82.040474 510.918823,78.289261 
	C510.279358,76.851593 509.066162,75.607292 507.925201,74.463608 
	C483.694733,50.175320 459.437225,25.913990 435.092499,1.323693 
	C486.266815,1.000000 537.533630,1.000000 589.000000,1.000000 
	C589.000000,62.020748 589.000000,123.041718 589.000000,184.531342 
z"/>
<path fill="#FFFFFF" opacity="1.000000" stroke="none" 
	d="
M530.468628,412.000000 
	C533.505188,404.414398 536.305786,396.281555 545.828308,393.803009 
	C546.811218,393.547150 547.248230,391.323181 548.009033,390.054657 
	C549.204956,388.060486 549.999512,385.179840 551.773315,384.292664 
	C558.521912,380.917389 563.999939,373.207947 564.000000,365.857117 
	C564.000061,359.042145 563.999878,352.227203 563.999939,345.412231 
	C564.000122,334.514038 569.572327,329.000854 580.587769,329.000092 
	C583.081055,328.999908 585.574341,329.000092 588.533813,329.000061 
	C589.000000,356.581146 589.000000,384.162323 589.000000,412.000000 
	C569.646545,412.000000 550.291931,412.000000 530.468628,412.000000 
z"/>
<path fill="#8199AD" opacity="1.000000" stroke="none" 
	d="
M329.750000,1.000000 
	C330.000000,22.029730 330.000000,43.059460 330.000000,64.089188 
	C329.666718,64.089050 329.333405,64.088913 329.000122,64.088776 
	C329.000122,43.371620 329.000122,22.654467 329.000061,1.468657 
	C329.000000,1.000000 329.500000,1.000000 329.750000,1.000000 
z"/>
<path fill="#ABACB1" opacity="1.000000" stroke="none" 
	d="
M378.005524,388.381073 
	C375.471252,385.191223 373.353363,381.143890 370.319672,377.972656 
	C361.018860,368.250000 351.289551,358.938477 341.904175,349.294525 
	C339.494720,346.818695 337.029724,345.872772 333.606934,345.931122 
	C322.145782,346.126526 310.677856,345.896454 299.215179,346.039764 
	C282.147125,346.253113 265.081268,346.645752 247.704849,346.633362 
	C251.711609,341.838074 256.027985,337.371460 261.204620,332.014648 
	C255.448730,332.698334 254.894684,330.129028 254.930893,326.415253 
	C255.084854,310.624542 254.991058,294.831482 254.999313,279.039276 
	C255.000656,276.475769 255.226685,274.178131 251.387802,273.937927 
	C241.985947,273.349609 241.996246,273.184845 241.996170,263.767120 
	C241.996155,262.271027 241.825974,260.751434 242.028458,259.283264 
	C242.607925,255.081924 240.867722,252.133438 237.870361,249.255219 
	C229.239029,240.967010 220.850250,232.424286 212.454208,223.894928 
	C211.119446,222.538986 210.239594,220.735260 209.476456,219.022919 
	C213.652451,216.714661 217.264252,214.230774 222.247925,215.166351 
	C224.031067,215.501099 226.549683,214.298203 228.088806,213.021194 
	C230.708801,210.847397 232.672562,210.655380 235.542160,212.679718 
	C236.972427,213.688690 239.461792,213.196304 241.472092,213.383041 
	C241.656540,212.744766 241.840988,212.106506 242.025436,211.468246 
	C235.126953,211.902939 233.031403,208.411652 233.313538,202.175552 
	C232.490067,203.452560 231.666595,204.729568 230.533920,205.890106 
	C229.507385,204.729752 228.790054,203.685883 228.408783,203.131027 
	C225.635300,202.693695 223.275604,202.321609 220.941406,201.487625 
	C220.287750,195.691727 222.856598,189.939102 219.165817,184.700470 
	C219.617935,174.941605 219.961792,165.508850 219.937042,156.077057 
	C219.924210,151.187302 220.104660,146.541046 223.020508,142.308411 
	C223.799576,141.177490 223.680801,139.428040 224.031616,137.675842 
	C221.572372,139.422806 219.854797,140.642899 218.137222,141.863007 
	C217.681412,141.466644 217.225601,141.070297 216.769791,140.673950 
	C217.283478,139.081604 217.411575,137.178391 218.391998,135.962357 
	C220.366623,133.513229 219.703842,132.149139 217.035645,130.687653 
	C215.395752,129.162537 213.099106,128.236481 212.579422,126.706741 
	C211.041779,122.180496 207.980164,121.476830 203.710510,121.835625 
	C200.395676,115.533676 200.655197,109.032181 201.098480,102.625885 
	C201.413559,98.072296 202.372192,94.075500 208.725021,93.647758 
	C215.369110,93.200378 216.496338,90.969131 216.037399,84.104675 
	C215.971008,83.111473 216.043854,82.108955 216.436554,81.064789 
	C221.831848,83.680458 226.535843,81.748909 231.296539,80.121315 
	C234.838562,78.910393 235.082031,77.301125 231.920502,74.910881 
	C231.468552,74.448509 231.242813,74.152206 231.017090,73.855911 
	C233.951004,73.570915 236.883942,73.051201 239.818970,73.039207 
	C258.293427,72.963661 276.768372,73.000946 295.508575,73.000946 
	C295.508575,139.950806 295.508575,206.560455 295.508575,273.668640 
	C284.837433,273.668640 273.924652,273.668640 261.526093,273.668640 
	C263.562622,275.874725 264.661163,277.142151 265.839935,278.329987 
	C283.202850,295.825989 300.431885,313.460907 318.151642,330.588043 
	C320.109894,332.480774 324.882935,331.659729 328.358856,331.741089 
	C334.869507,331.893524 341.386261,331.785004 347.895996,332.868530 
	C338.565155,332.868530 329.234314,332.868530 319.135101,332.868530 
	C321.937500,336.866730 325.216034,338.014374 329.145966,338.009094 
	C345.137360,337.987610 361.128784,338.000153 378.003082,338.000153 
	C378.003082,354.780884 378.003082,371.352570 378.005524,388.381073 
z"/>
<path fill="#AAABB0" opacity="1.000000" stroke="none" 
	d="
M217.190964,131.010818 
	C219.703842,132.149139 220.366623,133.513229 218.391998,135.962357 
	C217.411575,137.178391 217.283478,139.081604 216.769791,140.673950 
	C217.225601,141.070297 217.681412,141.466644 218.137222,141.863007 
	C219.854797,140.642899 221.572372,139.422806 224.031616,137.675842 
	C223.680801,139.428040 223.799576,141.177490 223.020508,142.308411 
	C220.104660,146.541046 219.924210,151.187302 219.937042,156.077057 
	C219.961792,165.508850 219.617935,174.941605 218.882660,184.536987 
	C196.109116,162.514053 173.882950,140.324966 151.641251,118.151421 
	C150.513245,117.026871 149.251328,116.036636 148.051743,114.983871 
	C148.051743,98.235519 148.051743,81.487167 148.051743,64.035431 
	C175.036667,64.035431 201.560501,64.035431 228.549454,64.092880 
	C228.014801,66.765511 227.015060,69.380699 225.834946,72.467728 
	C227.573837,72.756569 229.067581,73.004684 230.789200,73.554352 
	C231.242813,74.152206 231.468552,74.448509 231.811646,75.246330 
	C230.124161,76.801338 228.374481,78.608040 226.502548,78.745110 
	C223.041580,78.998550 219.509003,78.273994 215.636444,78.074402 
	C214.875504,80.205177 214.092743,82.233398 214.169281,84.228653 
	C214.370117,89.464096 213.103043,91.247314 207.990417,91.939873 
	C201.101105,92.873100 198.982422,95.201859 199.099991,102.319183 
	C199.179230,107.116310 199.266312,111.974083 200.097641,116.672424 
	C200.515030,119.031273 202.601334,121.094818 204.014404,123.554962 
	C204.721680,125.078651 205.347443,126.339302 206.070358,127.795685 
	C207.184113,127.362999 208.284973,126.935318 209.250809,126.560089 
	C211.418381,129.396408 212.458313,133.585403 217.190964,131.010818 
z"/>
<path fill="#05DDF9" opacity="1.000000" stroke="none" 
	d="
M523.987793,231.990234 
	C523.002258,235.982941 522.203186,240.033813 520.980652,243.952576 
	C519.665100,248.169495 522.387939,253.846115 527.781677,257.100616 
	C531.983215,259.635773 534.460571,256.524200 536.500793,253.817001 
	C538.918579,250.608826 540.689819,248.896530 543.939758,252.988113 
	C544.770813,254.034409 547.343933,253.990189 549.104614,253.947647 
	C553.634766,253.838181 555.197998,256.748993 555.905334,260.398193 
	C556.479797,263.362396 555.409851,265.078461 551.935913,265.038086 
	C541.293701,264.914490 530.648560,264.933899 520.005676,265.027679 
	C516.929565,265.054779 515.815002,263.698608 515.996887,260.800018 
	C516.318542,255.677246 516.714355,250.553482 516.822571,245.424698 
	C516.912354,241.166824 516.633484,236.901169 517.194214,232.319275 
	C519.909607,231.996475 521.948669,231.993362 523.987793,231.990234 
z"/>
<path fill="#05DBF7" opacity="1.000000" stroke="none" 
	d="
M516.133911,322.019348 
	C516.040894,317.987000 516.203369,314.333679 515.955994,310.708374 
	C515.660217,306.373840 517.443604,304.588562 521.741150,304.970123 
	C523.837219,305.156189 525.963562,305.002289 528.692261,305.002289 
	C526.464600,310.807434 524.832764,316.067017 522.335144,320.876984 
	C521.692322,322.114990 518.324097,321.937836 516.133911,322.019348 
z"/>
<path fill="#05DCF8" opacity="1.000000" stroke="none" 
	d="
M436.610931,134.516281 
	C437.253906,136.056335 438.066193,137.313507 438.006256,138.527618 
	C437.909790,140.481094 437.237396,142.406143 436.808289,144.343201 
	C435.146423,143.669067 433.482788,142.999222 431.825867,142.313126 
	C431.685242,142.254913 431.562897,142.105164 431.476807,141.969528 
	C430.087311,139.780655 428.705048,137.587173 427.321136,135.394745 
	C430.343689,135.001190 433.366211,134.607635 436.610931,134.516281 
z"/>
<path fill="#ABACB1" opacity="1.000000" stroke="none" 
	d="
M377.998657,291.206604 
	C377.999359,296.675018 377.999359,301.669403 377.999359,306.663788 
	C377.627472,306.661102 377.255585,306.658417 376.883698,306.655731 
	C376.653534,303.026672 377.520111,298.767090 375.894806,295.940125 
	C374.157135,292.917694 370.069458,291.246368 366.642792,288.715912 
	C372.984924,285.519897 377.395447,286.561707 377.998657,291.206604 
z"/>
<path fill="#09D9F2" opacity="1.000000" stroke="none" 
	d="
M523.989746,231.574677 
	C521.948669,231.993362 519.909607,231.996475 517.432800,231.999802 
	C517.034851,228.430252 515.992249,224.064484 522.618652,225.278854 
	C523.389221,226.043289 523.689514,226.521790 523.989746,227.000305 
	C523.990356,228.386581 523.991028,229.772842 523.989746,231.574677 
z"/>
<path fill="#FFFFFF" opacity="1.000000" stroke="none" 
	d="
M471.329285,119.003036 
	C476.454895,119.002174 481.116760,119.002174 485.778625,119.002174 
	C485.757050,119.482018 485.735474,119.961861 485.713898,120.441704 
	C485.018463,120.376328 484.309021,120.188461 483.629883,120.266022 
	C479.995850,120.681007 476.379059,121.304482 472.735657,121.552612 
	C471.213928,121.656242 469.641174,121.010651 468.091614,120.705719 
	C469.016266,120.138451 469.940918,119.571175 471.329285,119.003036 
z"/>
<path fill="#05DDF9" opacity="1.000000" stroke="none" 
	d="
M524.200439,226.768234 
	C523.689514,226.521790 523.389221,226.043289 523.044495,225.278839 
	C523.496277,224.637070 523.992554,224.281250 524.488831,223.925415 
	C524.462952,224.795654 524.437073,225.665909 524.200439,226.768234 
z"/>
<path fill="#E3E4E9" opacity="1.000000" stroke="none" 
	d="
M147.792221,115.193619 
	C149.251328,116.036636 150.513245,117.026871 151.641251,118.151421 
	C173.882950,140.324966 196.109116,162.514053 218.621582,184.863480 
	C222.856598,189.939102 220.287750,195.691727 220.480331,201.505402 
	C210.691040,202.018661 201.388290,202.052231 191.688858,202.067337 
	C190.498383,202.063004 189.704590,202.077118 188.451019,202.060883 
	C183.014633,202.022003 178.034561,202.122177 173.062683,201.964096 
	C170.100693,201.869904 168.862686,202.905289 168.961365,205.972092 
	C169.142685,211.606720 169.058258,217.249924 169.063049,223.364685 
	C169.027618,246.065704 169.077835,268.292084 168.909943,290.516815 
	C168.891266,292.990204 167.631149,295.454224 166.666565,298.102600 
	C163.895630,300.717773 161.291412,303.049011 158.942322,305.613892 
	C155.859863,308.979523 152.978531,312.529358 149.625717,315.998444 
	C148.470169,315.968933 147.699615,315.940948 146.929047,315.912964 
	C145.707367,314.196655 144.699738,312.266907 143.232437,310.795563 
	C113.027260,280.506500 82.778870,250.260468 52.493450,220.051620 
	C51.098495,218.660172 49.277832,217.695541 47.655434,216.532120 
	C47.564285,215.757324 47.473137,214.982544 47.381989,214.207748 
	C49.089302,213.137283 51.071579,212.342773 52.463478,210.955765 
	C82.646019,180.879517 112.767220,150.741699 142.880234,120.595741 
	C144.520187,118.953995 145.985886,117.138161 147.792221,115.193619 
z"/>
<path fill="#C9CACF" opacity="1.000000" stroke="none" 
	d="
M188.910797,202.091248 
	C189.704590,202.077118 190.498383,202.063004 191.718353,202.401108 
	C197.390533,207.791260 202.636520,212.829178 208.060272,218.110199 
	C208.541809,218.615036 208.845627,218.876785 209.149429,219.138550 
	C210.239594,220.735260 211.119446,222.538986 212.454208,223.894928 
	C220.850250,232.424286 229.239029,240.967010 237.870361,249.255219 
	C240.867722,252.133438 242.607925,255.081924 242.028458,259.283264 
	C241.825974,260.751434 241.996155,262.271027 241.996170,263.767120 
	C241.996246,273.184845 241.985947,273.349609 251.387802,273.937927 
	C255.226685,274.178131 255.000656,276.475769 254.999313,279.039276 
	C254.991058,294.831482 255.084854,310.624542 254.930893,326.415253 
	C254.894684,330.129028 255.448730,332.698334 261.204620,332.014648 
	C256.027985,337.371460 251.711609,341.838074 247.244141,346.586792 
	C238.078110,355.729889 229.050705,364.578247 220.051498,373.455200 
	C210.237076,383.136353 200.448883,392.844116 190.541901,402.646515 
	C162.096680,374.209503 133.468155,345.589264 103.841415,315.971069 
	C118.634727,315.971069 132.320694,315.971069 146.467865,315.942017 
	C147.699615,315.940948 148.470169,315.968933 150.093109,315.998474 
	C153.109436,316.000000 155.273361,316.000000 157.437302,316.000000 
	C169.029938,316.000000 169.133621,315.997986 168.909714,304.423187 
	C168.867554,302.244476 167.631760,300.088867 166.946777,297.922577 
	C167.631149,295.454224 168.891266,292.990204 168.909943,290.516815 
	C169.077835,268.292084 169.027618,246.065704 169.351273,223.225311 
	C174.042511,218.305374 178.514236,214.086700 182.768570,209.659119 
	C185.011734,207.324600 186.875641,204.625656 188.910797,202.091248 
z"/>
<path fill="#AAABB0" opacity="1.000000" stroke="none" 
	d="
M207.882523,217.867096 
	C202.636520,212.829178 197.390533,207.791260 192.115036,202.419571 
	C201.388290,202.052231 210.691040,202.018661 220.454865,201.967316 
	C223.275604,202.321609 225.635300,202.693695 228.408783,203.131027 
	C228.790054,203.685883 229.507385,204.729752 230.503235,206.232452 
	C226.571198,208.785095 222.419601,211.010574 218.131561,212.931366 
	C214.665543,214.483902 209.513824,212.477921 207.882523,217.867096 
z"/>
<path fill="#D0D1D6" opacity="1.000000" stroke="none" 
	d="
M208.060272,218.110199 
	C209.513824,212.477921 214.665543,214.483902 218.131561,212.931366 
	C222.419601,211.010574 226.571198,208.785095 230.812439,206.348923 
	C231.666595,204.729568 232.490067,203.452560 233.313538,202.175552 
	C233.031403,208.411652 235.126953,211.902939 242.025436,211.468246 
	C241.840988,212.106506 241.656540,212.744766 241.472092,213.383041 
	C239.461792,213.196304 236.972427,213.688690 235.542160,212.679718 
	C232.672562,210.655380 230.708801,210.847397 228.088806,213.021194 
	C226.549683,214.298203 224.031067,215.501099 222.247925,215.166351 
	C217.264252,214.230774 213.652451,216.714661 209.476456,219.022919 
	C208.845627,218.876785 208.541809,218.615036 208.060272,218.110199 
z"/>
<path fill="#D7D8DD" opacity="1.000000" stroke="none" 
	d="
M203.932877,123.291916 
	C202.601334,121.094818 200.515030,119.031273 200.097641,116.672424 
	C199.266312,111.974083 199.179230,107.116310 199.099991,102.319183 
	C198.982422,95.201859 201.101105,92.873100 207.990417,91.939873 
	C213.103043,91.247314 214.370117,89.464096 214.169281,84.228653 
	C214.092743,82.233398 214.875504,80.205177 215.733154,78.330109 
	C216.150543,79.349068 216.101410,80.229912 216.052277,81.110748 
	C216.043854,82.108955 215.971008,83.111473 216.037399,84.104675 
	C216.496338,90.969131 215.369110,93.200378 208.725021,93.647758 
	C202.372192,94.075500 201.413559,98.072296 201.098480,102.625885 
	C200.655197,109.032181 200.395676,115.533676 203.709946,122.128937 
	C203.949127,122.900093 203.941010,123.096008 203.932877,123.291916 
z"/>
<path fill="#CCCDD2" opacity="1.000000" stroke="none" 
	d="
M216.436554,81.064789 
	C216.101410,80.229912 216.150543,79.349068 216.102966,78.212524 
	C219.509003,78.273994 223.041580,78.998550 226.502548,78.745110 
	C228.374481,78.608040 230.124161,76.801338 232.037842,75.412399 
	C235.082031,77.301125 234.838562,78.910393 231.296539,80.121315 
	C226.535843,81.748909 221.831848,83.680458 216.436554,81.064789 
z"/>
<path fill="#CCCDD2" opacity="1.000000" stroke="none" 
	d="
M204.014404,123.554962 
	C203.941010,123.096008 203.949127,122.900093 203.957825,122.410858 
	C207.980164,121.476830 211.041779,122.180496 212.579422,126.706741 
	C213.099106,128.236481 215.395752,129.162537 217.035645,130.687653 
	C212.458313,133.585403 211.418381,129.396408 209.250809,126.560089 
	C208.284973,126.935318 207.184113,127.362999 206.070358,127.795685 
	C205.347443,126.339302 204.721680,125.078651 204.014404,123.554962 
z"/>
<path fill="#AAABB0" opacity="1.000000" stroke="none" 
	d="
M188.451019,202.060867 
	C186.875641,204.625656 185.011734,207.324600 182.768570,209.659119 
	C178.514236,214.086700 174.042511,218.305374 169.372833,222.750183 
	C169.058258,217.249924 169.142685,211.606720 168.961365,205.972092 
	C168.862686,202.905289 170.100693,201.869904 173.062683,201.964096 
	C178.034561,202.122177 183.014633,202.022003 188.451019,202.060867 
z"/>
<path fill="#AAABB0" opacity="1.000000" stroke="none" 
	d="
M166.666565,298.102600 
	C167.631760,300.088867 168.867554,302.244476 168.909714,304.423187 
	C169.133621,315.997986 169.029938,316.000000 157.437302,316.000000 
	C155.273361,316.000000 153.109436,316.000000 150.478088,316.000000 
	C152.978531,312.529358 155.859863,308.979523 158.942322,305.613892 
	C161.291412,303.049011 163.895630,300.717773 166.666565,298.102600 
z"/>
</svg>