<svg version="1.1" id="Layer_1" xmlns="http://www.w3.org/2000/svg" xmlns:xlink="http://www.w3.org/1999/xlink" x="0px" y="0px"
	 width="100%" viewBox="0 0 588 411" enable-background="new 0 0 588 411" xml:space="preserve">
<path fill="#FFFFFF" opacity="1.000000" stroke="none" 
	d="
M289.000000,1.000008 
	C388.971344,1.000000 488.942719,1.000000 588.957031,1.000000 
	C588.957031,137.932114 588.957031,274.864227 588.957031,411.898193 
	C393.124054,411.898193 197.248047,411.898193 1.000000,411.898193 
	C1.000000,342.644470 1.000000,273.288269 1.312906,203.583221 
	C20.341253,221.983383 39.081917,240.707336 57.745689,259.507629 
	C60.637753,262.420807 61.791252,260.410797 63.222858,258.081665 
	C63.377728,258.074585 63.672462,257.978302 63.910248,258.289490 
	C65.816048,259.044464 67.484062,259.488190 68.996536,260.229797 
	C68.030518,260.843140 67.220032,261.158630 66.350029,261.497284 
	C68.319489,263.838776 70.108139,265.965302 72.072609,268.396027 
	C73.078323,269.208160 74.164024,269.529327 74.694489,270.255920 
	C77.190300,273.674530 79.635567,275.655029 83.871201,272.289398 
	C84.896889,271.474365 87.753365,272.223328 89.365486,273.043854 
	C92.510117,274.644409 95.199463,277.194855 98.407402,278.596649 
	C100.626251,279.566193 103.402626,279.519135 105.922462,279.477509 
	C109.368797,279.420624 112.814400,278.653717 116.248344,278.730042 
	C118.841171,278.787659 121.072639,279.595398 123.082275,276.740692 
	C123.979561,275.466064 126.915558,275.041229 128.793198,275.279510 
	C129.790176,275.406036 130.502594,277.774658 131.618896,279.575470 
	C129.290237,279.926575 127.840050,280.145203 125.837006,280.447205 
	C130.039230,284.608521 133.871307,288.088348 137.285675,291.938629 
	C138.661530,293.490204 140.010468,295.929016 139.847534,297.833679 
	C139.104828,306.516296 146.524490,309.826691 150.971817,314.766418 
	C154.924927,319.157227 160.480286,322.100891 165.309021,325.709290 
	C170.083176,329.276917 174.299103,333.905853 181.230804,333.875549 
	C181.679626,333.891754 181.859161,333.859406 182.388153,333.892822 
	C183.177277,333.777466 183.818542,333.724609 184.027298,333.396515 
	C190.087967,323.871002 199.636871,318.832336 209.270950,314.033875 
	C212.338852,312.505859 215.854492,311.470398 219.259064,311.119232 
	C224.466904,310.582062 228.855621,307.600739 230.099304,302.630585 
	C231.818329,295.760712 233.474640,288.875183 235.377747,281.970520 
	C235.597672,281.944702 236.024200,281.824097 236.385773,281.883850 
	C238.657501,280.302063 240.683212,278.776245 242.460602,277.001709 
	C273.031189,246.480240 303.572479,215.929382 334.113525,185.378281 
	C335.362152,184.129272 336.545319,182.814774 337.755768,181.534210 
	C336.378387,179.917374 335.203186,178.537842 334.345154,176.969086 
	C335.337158,175.541580 335.706421,173.742142 336.747009,173.175522 
	C339.345306,171.760666 339.565979,170.450760 337.839539,168.155594 
	C337.147888,167.236130 337.080963,165.721634 337.033112,164.466415 
	C336.887909,160.656174 336.890839,156.840302 336.887634,152.763275 
	C336.904816,152.324387 336.870453,152.148819 336.791840,151.632812 
	C335.075439,148.938568 333.353119,146.618607 331.740051,144.225037 
	C325.276733,134.634338 311.683105,135.509659 305.119751,126.071510 
	C305.060211,125.985916 304.753876,126.101707 304.642975,126.017639 
	C302.952393,124.735855 301.154724,123.564171 299.618408,122.116051 
	C295.712097,118.433929 297.467987,113.467651 297.013062,108.734863 
	C308.188782,97.639618 319.207550,86.846092 330.261902,76.017715 
	C326.094330,71.615288 322.564484,67.886536 319.473663,64.091568 
	C322.250793,64.025345 324.588928,64.025345 326.927063,64.025345 
	C326.460754,63.591087 325.994446,63.156834 325.528137,62.722576 
	C326.453888,59.241863 327.429108,55.773193 328.280762,52.274437 
	C328.616180,50.896374 328.675659,49.451149 329.023773,47.716263 
	C329.882324,45.956291 330.577911,44.516560 331.697449,42.199245 
	C317.394470,28.398169 303.197235,14.699093 289.000000,1.000008 
z"/>
<path fill="#00FFAE" opacity="1.000000" stroke="none" 
	d="
M296.856110,109.036568 
	C297.467987,113.467651 295.712097,118.433929 299.618408,122.116051 
	C301.154724,123.564171 302.952393,124.735855 304.642975,126.017639 
	C304.753876,126.101707 305.060211,125.985916 305.119751,126.071510 
	C311.683105,135.509659 325.276733,134.634338 331.740051,144.225037 
	C333.353119,146.618607 335.075439,148.938568 336.334259,151.641510 
	C303.000732,151.990646 270.080505,151.990646 237.160294,151.990646 
	C237.161118,152.335968 237.161926,152.681290 237.162750,153.026611 
	C270.387207,153.026611 303.611633,153.026611 336.836090,153.026611 
	C336.890839,156.840302 336.887909,160.656174 337.033112,164.466415 
	C337.080963,165.721634 337.147888,167.236130 337.839539,168.155594 
	C339.565979,170.450760 339.345306,171.760666 336.747009,173.175522 
	C335.706421,173.742142 335.337158,175.541580 333.880341,176.907379 
	C302.474182,177.023376 271.850006,177.003357 241.225845,177.008347 
	C235.805786,177.009232 234.404160,178.890381 235.617126,184.152802 
	C235.235214,216.944901 235.196533,249.470612 235.157837,281.996338 
	C233.474640,288.875183 231.818329,295.760712 230.099304,302.630585 
	C228.855621,307.600739 224.466904,310.582062 219.259064,311.119232 
	C215.854492,311.470398 212.338852,312.505859 209.270950,314.033875 
	C199.636871,318.832336 190.087967,323.871002 184.027298,333.396515 
	C183.818542,333.724609 183.177277,333.777466 182.379852,333.435822 
	C182.022079,299.987671 182.022079,267.062317 182.022079,234.136978 
	C181.668564,234.137817 181.315033,234.138657 180.961517,234.139496 
	C180.961517,267.368683 180.961517,300.597870 180.961517,333.827057 
	C174.299103,333.905853 170.083176,329.276917 165.309021,325.709290 
	C160.480286,322.100891 154.924927,319.157227 150.971817,314.766418 
	C146.524490,309.826691 139.104828,306.516296 139.847534,297.833679 
	C140.010468,295.929016 138.661530,293.490204 137.285675,291.938629 
	C133.871307,288.088348 130.039230,284.608521 125.837006,280.447205 
	C127.840050,280.145203 129.290237,279.926575 131.618896,279.575470 
	C130.502594,277.774658 129.790176,275.406036 128.793198,275.279510 
	C126.915558,275.041229 123.979561,275.466064 123.082275,276.740692 
	C121.072639,279.595398 118.841171,278.787659 116.248344,278.730042 
	C112.814400,278.653717 109.368797,279.420624 105.922462,279.477509 
	C103.402626,279.519135 100.626251,279.566193 98.407402,278.596649 
	C95.199463,277.194855 92.510117,274.644409 89.365486,273.043854 
	C87.753365,272.223328 84.896889,271.474365 83.871201,272.289398 
	C79.635567,275.655029 77.190300,273.674530 74.694489,270.255920 
	C74.164024,269.529327 73.078323,269.208160 72.107574,267.923218 
	C71.966728,233.918015 71.966728,200.689835 71.966728,167.324722 
	C69.845932,167.324722 68.325447,167.324722 67.903870,167.324722 
	C68.620499,172.112473 69.869347,176.717133 69.906876,181.331665 
	C70.105774,205.787659 70.017586,230.246155 69.963783,254.703659 
	C69.959953,256.446991 69.434814,258.189209 69.152069,259.931946 
	C67.484062,259.488190 65.816048,259.044464 63.929806,257.827301 
	C63.719769,225.206116 63.750767,193.358276 63.662537,161.510757 
	C63.658516,160.060226 62.579460,158.612671 61.660099,156.896027 
	C61.559494,150.454712 61.799908,144.281067 62.382713,137.841125 
	C62.808350,112.272896 62.897221,86.970985 62.934105,61.668995 
	C62.934834,61.167198 62.326923,60.664509 61.603207,60.100922 
	C60.128304,60.079582 59.053165,60.119560 57.513672,60.092148 
	C47.277275,60.024761 37.505230,60.024761 27.733189,60.024761 
	C30.648746,58.105701 34.173790,57.914314 36.902603,56.341484 
	C42.486359,53.123138 48.157230,49.719719 52.854481,45.377975 
	C59.980038,38.791718 68.094719,32.764286 70.162468,22.108320 
	C70.548927,20.116743 73.500870,18.181553 75.697830,17.062551 
	C83.383438,13.147951 91.642807,10.069489 95.000000,1.000000 
	C136.020889,1.000000 177.041794,1.000000 218.531494,1.468657 
	C219.000366,13.911999 218.924484,25.887699 219.084732,37.860237 
	C219.107971,39.596951 220.262466,41.318520 221.123260,43.365505 
	C223.056244,44.141758 225.998856,44.245285 226.248535,45.118671 
	C227.341324,48.941154 230.123337,47.975830 232.563202,47.978848 
	C264.662384,48.018566 296.761597,48.023129 328.860779,48.036499 
	C328.675659,49.451149 328.616180,50.896374 328.280762,52.274437 
	C327.429108,55.773193 326.453888,59.241863 325.528137,62.722576 
	C325.994446,63.156834 326.460754,63.591087 326.927063,64.025345 
	C324.588928,64.025345 322.250793,64.025345 319.008179,64.029861 
	C288.196777,64.034378 258.289856,64.034378 228.000458,64.034378 
	C228.000458,77.674767 228.159988,90.718079 227.910126,103.753532 
	C227.827591,108.060188 229.397446,109.101196 233.424271,109.073463 
	C254.567307,108.927834 275.712006,109.024231 296.856110,109.036568 
z"/>
<path fill="#A7A8AD" opacity="1.000000" stroke="none" 
	d="
M62.040321,138.107437 
	C61.799908,144.281067 61.559494,150.454712 61.659653,157.352600 
	C62.000198,189.155807 61.978004,220.234802 62.046158,251.313583 
	C62.051109,253.572708 62.712044,255.830399 63.067989,258.088745 
	C61.791252,260.410797 60.637753,262.420807 57.745689,259.507629 
	C39.081917,240.707336 20.341253,221.983383 1.312906,203.117188 
	C1.000000,174.979111 1.000000,146.958206 1.312906,118.351463 
	C19.765867,99.662544 37.915428,81.568970 56.016850,63.427361 
	C56.887623,62.554653 57.334011,61.258499 57.978027,60.159538 
	C59.053165,60.119560 60.128304,60.079582 61.601955,60.557339 
	C62.013752,86.752525 62.027039,112.429985 62.040321,138.107437 
z"/>
<path fill="#FFFFFF" opacity="1.000000" stroke="none" 
	d="
M57.513672,60.092148 
	C57.334011,61.258499 56.887623,62.554653 56.016850,63.427361 
	C37.915428,81.568970 19.765867,99.662544 1.312906,117.882805 
	C1.000000,79.081017 1.000000,40.162033 1.000000,1.000000 
	C32.020470,1.000000 63.041576,1.000000 94.531342,1.000000 
	C91.642807,10.069489 83.383438,13.147951 75.697830,17.062551 
	C73.500870,18.181553 70.548927,20.116743 70.162468,22.108320 
	C68.094719,32.764286 59.980038,38.791718 52.854481,45.377975 
	C48.157230,49.719719 42.486359,53.123138 36.902603,56.341484 
	C34.173790,57.914314 30.648746,58.105701 27.733189,60.024761 
	C37.505230,60.024761 47.277275,60.024761 57.513672,60.092148 
z"/>
<path fill="#ADACB1" opacity="1.000000" stroke="none" 
	d="
M329.023773,47.716263 
	C296.761597,48.023129 264.662384,48.018566 232.563202,47.978848 
	C230.123337,47.975830 227.341324,48.941154 226.248535,45.118671 
	C225.998856,44.245285 223.056244,44.141758 221.493073,43.206406 
	C228.999939,40.896023 228.999969,40.896023 229.000000,32.789188 
	C229.000031,22.192793 229.000000,11.596396 229.000000,1.000000 
	C248.687561,1.000000 268.375122,1.000000 288.531311,1.000008 
	C303.197235,14.699093 317.394470,28.398169 331.697449,42.199245 
	C330.577911,44.516560 329.882324,45.956291 329.023773,47.716263 
z"/>
<path fill="#AAA9AE" opacity="1.000000" stroke="none" 
	d="
M228.545898,1.000000 
	C229.000000,11.596396 229.000031,22.192793 229.000000,32.789188 
	C228.999969,40.896023 228.999939,40.896023 221.263306,42.888000 
	C220.262466,41.318520 219.107971,39.596951 219.084732,37.860237 
	C218.924484,25.887699 219.000366,13.911999 219.000153,1.468657 
	C222.030594,1.000000 225.061188,1.000000 228.545898,1.000000 
z"/>
<path fill="#A4A5AA" opacity="1.000000" stroke="none" 
	d="
M235.960342,183.886444 
	C234.404160,178.890381 235.805786,177.009232 241.225845,177.008347 
	C271.850006,177.003357 302.474182,177.023376 333.563171,177.096603 
	C335.203186,178.537842 336.378387,179.917374 337.755768,181.534210 
	C336.545319,182.814774 335.362152,184.129272 334.113525,185.378281 
	C303.572479,215.929382 273.031189,246.480240 242.460602,277.001709 
	C240.683212,278.776245 238.657501,280.302063 236.379074,281.429993 
	C235.993973,248.573044 235.977158,216.229752 235.960342,183.886444 
z"/>
<path fill="#AEAFB4" opacity="1.000000" stroke="none" 
	d="
M297.013062,108.734863 
	C275.712006,109.024231 254.567307,108.927834 233.424271,109.073463 
	C229.397446,109.101196 227.827591,108.060188 227.910126,103.753532 
	C228.159988,90.718079 228.000458,77.674767 228.000458,64.034378 
	C258.289856,64.034378 288.196777,64.034378 318.569183,64.096085 
	C322.564484,67.886536 326.094330,71.615288 330.261902,76.017715 
	C319.207550,86.846092 308.188782,97.639618 297.013062,108.734863 
z"/>
<path fill="#4FDAB1" opacity="1.000000" stroke="none" 
	d="
M68.996536,260.229797 
	C69.434814,258.189209 69.959953,256.446991 69.963783,254.703659 
	C70.017586,230.246155 70.105774,205.787659 69.906876,181.331665 
	C69.869347,176.717133 68.620499,172.112473 67.903870,167.324722 
	C68.325447,167.324722 69.845932,167.324722 71.966728,167.324722 
	C71.966728,200.689835 71.966728,233.918015 71.931763,267.619019 
	C70.108139,265.965302 68.319489,263.838776 66.350029,261.497284 
	C67.220032,261.158630 68.030518,260.843140 68.996536,260.229797 
z"/>
<path fill="#AEAFB4" opacity="1.000000" stroke="none" 
	d="
M63.222858,258.081665 
	C62.712044,255.830399 62.051109,253.572708 62.046158,251.313583 
	C61.978004,220.234802 62.000198,189.155807 62.000671,157.620300 
	C62.579460,158.612671 63.658516,160.060226 63.662537,161.510757 
	C63.750767,193.358276 63.719769,225.206116 63.692020,257.516113 
	C63.672462,257.978302 63.377728,258.074585 63.222858,258.081665 
z"/>
<path fill="#27ECAF" opacity="1.000000" stroke="none" 
	d="
M336.887634,152.763275 
	C303.611633,153.026611 270.387207,153.026611 237.162750,153.026611 
	C237.161926,152.681290 237.161118,152.335968 237.160294,151.990646 
	C270.080505,151.990646 303.000732,151.990646 336.378540,151.981964 
	C336.870453,152.148819 336.904816,152.324387 336.887634,152.763275 
z"/>
<path fill="#27ECAF" opacity="1.000000" stroke="none" 
	d="
M181.230804,333.875549 
	C180.961517,300.597870 180.961517,267.368683 180.961517,234.139496 
	C181.315033,234.138657 181.668564,234.137817 182.022079,234.136978 
	C182.022079,267.062317 182.022079,299.987671 182.030396,333.370056 
	C181.859161,333.859406 181.679626,333.891754 181.230804,333.875549 
z"/>
<path fill="#AEAFB4" opacity="1.000000" stroke="none" 
	d="
M235.617126,184.152802 
	C235.977158,216.229752 235.993973,248.573044 236.017487,281.370239 
	C236.024200,281.824097 235.597672,281.944702 235.377747,281.970520 
	C235.196533,249.470612 235.235214,216.944901 235.617126,184.152802 
z"/>
<path fill="#AEAFB4" opacity="1.000000" stroke="none" 
	d="
M62.382717,137.841125 
	C62.027039,112.429985 62.013752,86.752525 62.001720,60.618652 
	C62.326923,60.664509 62.934834,61.167198 62.934105,61.668995 
	C62.897221,86.970985 62.808350,112.272896 62.382717,137.841125 
z"/>
</svg>