<svg version="1.1" id="Layer_1" xmlns="http://www.w3.org/2000/svg" xmlns:xlink="http://www.w3.org/1999/xlink" x="0px" y="0px"
	 width="100%" viewBox="0 0 588 411" enable-background="new 0 0 588 411" xml:space="preserve">
<path fill="#FFFFFF" opacity="1.000000" stroke="none" 
	d="
M343.000000,0.999997 
	C424.980774,1.000000 506.961548,1.000000 588.971191,1.000000 
	C588.971191,137.948669 588.971191,274.897339 588.971191,411.923004 
	C393.097290,411.923004 197.194534,411.923004 1.145893,411.923004 
	C1.145893,275.000092 1.145893,138.000076 1.145893,1.000000 
	C62.097160,1.000000 123.082542,1.000000 184.441864,1.323560 
	C169.407120,17.065722 153.984482,32.470428 138.599518,47.912674 
	C134.748291,51.778252 133.250778,56.624771 133.113312,62.240681 
	C133.096008,62.672958 133.130661,62.845867 133.096832,63.431534 
	C133.772064,66.435417 134.066406,69.279037 135.351501,71.565918 
	C138.163055,76.569206 137.549927,80.041374 132.260117,82.138588 
	C129.310501,83.307999 125.858482,83.155525 122.794319,84.114578 
	C121.336327,84.570900 119.407356,86.067619 119.152878,87.377022 
	C118.130821,92.635849 115.191383,95.624245 109.754509,96.000671 
	C106.255142,96.242958 102.752434,100.043907 103.104645,103.203339 
	C103.411583,105.956696 103.701973,108.711906 104.000191,111.466240 
	C104.516579,116.235497 105.223503,120.000603 110.922775,122.460518 
	C115.214836,124.313042 119.921448,126.800774 123.620499,129.611710 
	C130.920929,135.159363 136.969604,142.379211 143.343185,149.090607 
	C144.153732,149.944138 143.810669,151.894379 143.999649,153.336838 
	C144.649734,158.298752 145.467621,163.247559 145.859161,168.229828 
	C146.001678,170.043472 145.213470,171.961700 144.690506,173.786530 
	C144.247665,175.331711 143.466278,176.779877 143.023499,178.325058 
	C141.422073,183.913467 140.306274,189.680374 138.234161,195.083466 
	C136.162170,200.486176 136.426010,204.939407 140.356171,208.868973 
	C171.700211,240.208038 203.051514,271.539856 234.384766,302.889679 
	C240.136230,308.644196 241.940430,308.743530 247.427002,303.000305 
	C249.132797,301.214722 250.496796,299.102570 252.438690,296.595947 
	C255.694885,300.015625 257.795563,302.603241 260.303162,304.705444 
	C261.702148,305.878265 263.766968,306.821167 265.550446,306.854065 
	C269.303925,306.923309 273.070068,306.328003 276.830414,305.999146 
	C280.657471,305.664520 282.610413,307.414368 284.177643,311.005676 
	C287.116547,317.740204 290.984619,323.692139 299.964294,323.141113 
	C302.394226,322.991974 304.942932,324.415375 307.400360,325.228180 
	C308.632202,325.635681 309.781494,326.292969 311.283203,326.893127 
	C312.013184,326.606140 312.428101,326.263306 313.005188,325.625427 
	C345.413177,293.082581 377.659851,260.835663 409.903656,228.585892 
	C414.218933,224.269821 414.081360,219.746887 409.535187,215.837433 
	C403.709198,210.827438 402.662872,204.093155 406.867828,197.619370 
	C407.960724,195.936768 409.500305,194.544312 410.886688,192.759277 
	C410.904022,192.327103 410.869354,192.154221 410.788818,191.635010 
	C408.938782,189.112137 407.507629,186.368713 405.249207,184.882416 
	C401.127625,182.169937 396.515991,180.202087 391.938293,177.595917 
	C391.461975,175.854477 391.156128,174.440765 390.904785,172.658661 
	C392.639221,170.582321 394.319122,168.874344 396.436371,167.097412 
	C400.533813,166.354218 404.192230,165.670624 407.854462,165.008194 
	C412.069855,164.245712 412.012939,162.442093 409.068604,159.528076 
	C410.386993,156.444824 411.749908,153.759491 413.540100,151.043472 
	C417.212341,150.327515 422.008484,153.097031 422.914612,146.793884 
	C422.992126,146.557510 423.111969,146.074631 423.427917,146.037964 
	C424.441559,145.343643 425.139191,144.685989 425.954803,143.754807 
	C426.327423,142.975952 426.582092,142.470642 426.904236,141.557129 
	C426.931183,139.773071 426.890717,138.397232 426.976196,136.746094 
	C426.351532,134.973450 425.600861,133.476105 424.756409,131.585709 
	C424.054413,126.140724 423.446136,121.088783 422.885254,115.768875 
	C422.901245,115.322212 422.869873,115.143524 422.771545,114.607254 
	C418.724945,111.318275 419.968750,107.225838 420.325989,103.360886 
	C420.838654,97.814873 421.562561,92.285309 421.948914,86.731522 
	C422.370880,80.665993 422.627258,74.582237 422.700714,68.503357 
	C422.721954,66.744179 422.333740,63.822201 421.328430,63.413666 
	C417.463928,61.843143 413.300812,60.352123 409.196503,60.193924 
	C404.126526,59.998501 400.442291,57.694347 397.134857,54.555656 
	C386.426025,44.393135 375.810883,34.128761 365.306183,23.755239 
	C357.749573,16.292934 350.427002,8.593596 343.000000,0.999997 
z"/>
<path fill="#FAFF00" opacity="1.000000" stroke="none" 
	d="
M133.165298,61.981316 
	C133.250778,56.624771 134.748291,51.778252 138.599518,47.912674 
	C153.984482,32.470428 169.407120,17.065722 184.907898,1.323560 
	C237.354233,1.000000 289.708466,1.000000 342.531342,0.999997 
	C350.427002,8.593596 357.749573,16.292934 365.306183,23.755239 
	C375.810883,34.128761 386.426025,44.393135 397.134857,54.555656 
	C400.442291,57.694347 404.126526,59.998501 409.196503,60.193924 
	C413.300812,60.352123 417.463928,61.843143 421.328430,63.413666 
	C422.333740,63.822201 422.721954,66.744179 422.700714,68.503357 
	C422.627258,74.582237 422.370880,80.665993 421.948914,86.731522 
	C421.562561,92.285309 420.838654,97.814873 420.325989,103.360886 
	C419.968750,107.225838 418.724945,111.318275 422.314087,114.618744 
	C388.992828,114.987808 356.062103,114.987808 323.131348,114.987808 
	C323.132141,115.337486 323.132935,115.687172 323.133728,116.036850 
	C356.368439,116.036850 389.603180,116.036850 422.837891,116.036850 
	C423.446136,121.088783 424.054413,126.140724 424.299805,131.593323 
	C391.692841,131.993973 359.448761,131.993973 327.268616,131.993973 
	C327.268616,133.999207 327.268616,135.271332 327.268616,137.021378 
	C360.627777,137.021378 393.738983,137.021378 426.850220,137.021378 
	C426.890717,138.397232 426.931183,139.773071 426.446930,141.568100 
	C392.844727,141.987274 359.767273,141.987274 326.689819,141.987274 
	C326.695679,142.667633 326.701508,143.347977 326.707336,144.028336 
	C359.750519,144.028336 392.793671,144.028336 425.836853,144.028336 
	C425.139191,144.685989 424.441559,145.343643 422.952637,146.013916 
	C390.458160,146.026520 358.754974,146.026520 327.051758,146.026520 
	C327.052094,146.361099 327.052429,146.695679 327.052765,147.030258 
	C358.980865,147.030258 390.908966,147.030258 422.837067,147.030258 
	C422.008484,153.097031 417.212341,150.327515 413.064758,151.019608 
	C383.587646,151.026413 355.013184,151.026413 326.387390,151.026413 
	C326.387390,154.387436 326.387390,156.946838 326.387390,159.926010 
	C354.218384,159.926010 381.665771,159.926010 409.113159,159.926010 
	C412.012939,162.442093 412.069855,164.245712 407.854462,165.008194 
	C404.192230,165.670624 400.533813,166.354218 395.972015,167.030991 
	C372.449524,167.033524 349.828705,167.033524 326.959778,167.033524 
	C326.959778,169.390259 326.959778,171.202255 326.672729,173.274719 
	C325.069763,177.352585 326.969086,178.060806 330.335938,178.042587 
	C350.926483,177.931213 371.517731,177.948944 392.108765,177.923645 
	C396.515991,180.202087 401.127625,182.169937 405.249207,184.882416 
	C407.507629,186.368713 408.938782,189.112137 410.331360,191.641037 
	C377.004578,191.993393 344.089325,191.993393 311.174103,191.993393 
	C311.174896,192.335129 311.175720,192.676849 311.176544,193.018585 
	C344.395935,193.018585 377.615326,193.018585 410.834717,193.018585 
	C409.500305,194.544312 407.960724,195.936768 406.867828,197.619370 
	C402.662872,204.093155 403.709198,210.827438 409.535187,215.837433 
	C414.081360,219.746887 414.218933,224.269821 409.903656,228.585892 
	C377.659851,260.835663 345.413177,293.082581 312.731934,325.321777 
	C312.197632,323.497498 312.013794,321.681824 312.012695,319.866028 
	C311.994720,290.605225 312.000000,261.344421 312.000000,232.083633 
	C312.000000,230.436493 312.000000,228.789352 312.000000,227.142212 
	C311.656036,227.154922 311.312073,227.167648 310.968109,227.180359 
	C310.968109,260.399323 310.968109,293.618317 310.968109,326.837280 
	C309.781494,326.292969 308.632202,325.635681 307.400360,325.228180 
	C304.942932,324.415375 302.394226,322.991974 299.964294,323.141113 
	C290.984619,323.692139 287.116547,317.740204 284.177643,311.005676 
	C282.610413,307.414368 280.657471,305.664520 276.830414,305.999146 
	C273.070068,306.328003 269.303925,306.923309 265.550446,306.854065 
	C263.766968,306.821167 261.702148,305.878265 260.303162,304.705444 
	C257.795563,302.603241 255.694885,300.015625 252.438690,296.595947 
	C250.496796,299.102570 249.132797,301.214722 247.427002,303.000305 
	C241.940430,308.743530 240.136230,308.644196 234.384766,302.889679 
	C203.051514,271.539856 171.700211,240.208038 140.356171,208.868973 
	C136.426010,204.939407 136.162170,200.486176 138.234161,195.083466 
	C140.306274,189.680374 141.422073,183.913467 143.023499,178.325058 
	C143.466278,176.779877 144.247665,175.331711 144.690506,173.786530 
	C145.213470,171.961700 146.001678,170.043472 145.859161,168.229828 
	C145.467621,163.247559 144.649734,158.298752 143.999649,153.336838 
	C143.810669,151.894379 144.153732,149.944138 143.343185,149.090607 
	C136.969604,142.379211 130.920929,135.159363 123.620499,129.611710 
	C119.921448,126.800774 115.214836,124.313042 110.922775,122.460518 
	C105.223503,120.000603 104.516579,116.235497 104.000191,111.466240 
	C103.701973,108.711906 103.411583,105.956696 103.104645,103.203339 
	C102.752434,100.043907 106.255142,96.242958 109.754509,96.000671 
	C115.191383,95.624245 118.130821,92.635849 119.152878,87.377022 
	C119.407356,86.067619 121.336327,84.570900 122.794319,84.114578 
	C125.858482,83.155525 129.310501,83.307999 132.260117,82.138588 
	C137.549927,80.041374 138.163055,76.569206 135.351501,71.565918 
	C134.066406,69.279037 133.772064,66.435417 133.554291,63.425457 
	C166.995331,63.006618 199.910477,63.006618 232.825623,63.006618 
	C232.824799,62.664852 232.823990,62.323082 232.823166,61.981316 
	C199.603882,61.981316 166.384583,61.981316 133.165298,61.981316 
z"/>
<path fill="#E6EA2C" opacity="1.000000" stroke="none" 
	d="
M409.068604,159.528076 
	C381.665771,159.926010 354.218384,159.926010 326.387390,159.926010 
	C326.387390,156.946838 326.387390,154.387436 326.387390,151.026413 
	C355.013184,151.026413 383.587646,151.026413 412.637451,151.050278 
	C411.749908,153.759491 410.386993,156.444824 409.068604,159.528076 
z"/>
<path fill="#ACADB2" opacity="1.000000" stroke="none" 
	d="
M426.976196,136.746094 
	C393.738983,137.021378 360.627777,137.021378 327.268616,137.021378 
	C327.268616,135.271332 327.268616,133.999207 327.268616,131.993973 
	C359.448761,131.993973 391.692841,131.993973 424.393555,131.986359 
	C425.600861,133.476105 426.351532,134.973450 426.976196,136.746094 
z"/>
<path fill="#ACADB2" opacity="1.000000" stroke="none" 
	d="
M326.959778,173.014236 
	C326.959778,171.202255 326.959778,169.390259 326.959778,167.033524 
	C349.828705,167.033524 372.449524,167.033524 395.534668,167.099945 
	C394.319122,168.874344 392.639221,170.582321 390.448303,172.649628 
	C368.944794,173.010712 347.952301,173.012482 326.959778,173.014236 
z"/>
<path fill="#E6EA2C" opacity="1.000000" stroke="none" 
	d="
M326.672729,173.274719 
	C347.952301,173.012482 368.944794,173.010712 390.393799,173.017990 
	C391.156128,174.440765 391.461975,175.854477 391.938293,177.595917 
	C371.517731,177.948944 350.926483,177.931213 330.335938,178.042587 
	C326.969086,178.060806 325.069763,177.352585 326.672729,173.274719 
z"/>
<path fill="#E6EA2C" opacity="1.000000" stroke="none" 
	d="
M425.954803,143.754807 
	C392.793671,144.028336 359.750519,144.028336 326.707336,144.028336 
	C326.701508,143.347977 326.695679,142.667633 326.689819,141.987274 
	C359.767273,141.987274 392.844727,141.987274 426.379486,141.976303 
	C426.582092,142.470642 426.327423,142.975952 425.954803,143.754807 
z"/>
<path fill="#E7EB2C" opacity="1.000000" stroke="none" 
	d="
M311.283203,326.893127 
	C310.968109,293.618317 310.968109,260.399323 310.968109,227.180359 
	C311.312073,227.167648 311.656036,227.154922 312.000000,227.142212 
	C312.000000,228.789352 312.000000,230.436493 312.000000,232.083633 
	C312.000000,261.344421 311.994720,290.605225 312.012695,319.866028 
	C312.013794,321.681824 312.197632,323.497498 312.569702,325.616852 
	C312.428101,326.263306 312.013184,326.606140 311.283203,326.893127 
z"/>
<path fill="#EFF319" opacity="1.000000" stroke="none" 
	d="
M133.113312,62.240681 
	C166.384583,61.981316 199.603882,61.981316 232.823166,61.981316 
	C232.823990,62.323082 232.824799,62.664852 232.825623,63.006618 
	C199.910477,63.006618 166.995331,63.006618 133.622742,63.012695 
	C133.130661,62.845867 133.096008,62.672958 133.113312,62.240681 
z"/>
<path fill="#E2E634" opacity="1.000000" stroke="none" 
	d="
M422.885254,115.768875 
	C389.603180,116.036850 356.368439,116.036850 323.133728,116.036850 
	C323.132935,115.687172 323.132141,115.337486 323.131348,114.987808 
	C356.062103,114.987808 388.992828,114.987808 422.381042,114.976318 
	C422.869873,115.143524 422.901245,115.322212 422.885254,115.768875 
z"/>
<path fill="#EEF319" opacity="1.000000" stroke="none" 
	d="
M410.886688,192.759277 
	C377.615326,193.018585 344.395935,193.018585 311.176544,193.018585 
	C311.175720,192.676849 311.174896,192.335129 311.174103,191.993393 
	C344.089325,191.993393 377.004578,191.993393 410.377258,191.987366 
	C410.869354,192.154221 410.904022,192.327103 410.886688,192.759277 
z"/>
<path fill="#E6EA2C" opacity="1.000000" stroke="none" 
	d="
M422.914612,146.793884 
	C390.908966,147.030258 358.980865,147.030258 327.052765,147.030258 
	C327.052429,146.695679 327.052094,146.361099 327.051758,146.026520 
	C358.754974,146.026520 390.458160,146.026520 422.636658,146.050568 
	C423.111969,146.074631 422.992126,146.557510 422.914612,146.793884 
z"/>
</svg>