<svg version="1.1" id="Layer_1" xmlns="http://www.w3.org/2000/svg" xmlns:xlink="http://www.w3.org/1999/xlink" x="0px" y="0px"
	 width="100%" viewBox="0 0 588 411" enable-background="new 0 0 588 411" xml:space="preserve">
<path fill="#FFFFFF" opacity="1.000000" stroke="none" 
	d="
M1.000002,118.000000 
	C1.000000,79.011391 1.000000,40.022778 1.000000,1.017082 
	C196.931381,1.017082 392.862762,1.017082 588.897095,1.017082 
	C588.897095,137.891312 588.897095,274.782715 588.897095,412.000000 
	C468.644226,412.000000 348.288147,412.000000 227.582962,411.686951 
	C228.507736,410.063080 229.765656,408.736298 231.057892,407.443817 
	C253.980087,384.517334 276.925507,361.613892 299.774689,338.614899 
	C300.896240,337.485962 301.184570,335.529205 301.916931,333.567505 
	C300.344086,330.056305 300.812592,327.619781 303.394989,324.911896 
	C307.197784,320.924377 310.386108,316.350861 313.897278,311.763428 
	C313.917664,311.324188 313.876892,311.148529 313.794647,310.612427 
	C310.967926,307.729950 307.804413,306.649109 303.959625,306.938232 
	C299.014069,307.310028 294.856781,305.401154 291.314148,301.847443 
	C268.056732,278.517456 244.915680,255.066360 221.320175,232.082336 
	C215.894760,226.797546 212.556213,221.606857 214.018738,214.034454 
	C214.865356,209.650909 211.662170,207.864853 208.705933,207.167603 
	C201.586563,205.488449 194.285721,204.578796 187.058075,203.358765 
	C188.428253,202.178238 189.893372,202.014236 191.358734,202.011948 
	C204.336105,201.991745 217.317673,201.811966 230.288727,202.098724 
	C235.049622,202.203979 236.544022,200.411087 235.833405,195.718643 
	C234.906296,194.916977 233.987289,194.443314 232.924881,193.631775 
	C230.243912,191.680695 225.760193,190.295929 225.538940,188.410828 
	C224.910995,183.060974 221.663193,184.062393 218.481476,183.996063 
	C216.989029,183.964981 215.497391,183.894943 214.279877,183.540787 
	C217.790131,183.239014 221.025894,183.239014 225.376434,183.239014 
	C219.692703,176.253708 210.964096,172.317139 214.460724,161.451080 
	C205.577209,164.135712 201.421631,159.055008 196.803909,154.382248 
	C173.294098,130.592194 149.644058,106.940781 126.075394,83.208763 
	C124.351242,81.472672 123.410927,81.597084 122.447708,84.008911 
	C115.336754,84.000931 108.673393,84.019623 102.010239,83.990295 
	C99.362915,83.978645 97.063866,84.234627 94.687637,81.659424 
	C92.483299,79.270508 88.649574,77.876884 85.300766,77.206360 
	C82.406921,76.626923 79.186325,77.679306 76.258789,77.675087 
	C78.079506,77.111656 79.751602,76.883461 82.870872,76.457756 
	C77.121841,71.115227 72.240509,66.579041 67.086655,61.789608 
	C65.985527,63.236431 64.930908,64.622147 63.449615,66.004242 
	C59.949078,65.696487 56.436012,64.305344 53.899193,65.330353 
	C49.556667,67.084953 45.825130,70.351707 41.556839,73.236420 
	C40.699413,75.644936 40.801216,78.469604 39.439182,79.851830 
	C26.769625,92.709290 13.848314,105.318680 1.000002,118.000000 
z"/>
<path fill="#FF0004" opacity="1.000000" stroke="none" 
	d="
M235.841537,196.046631 
	C236.544022,200.411087 235.049622,202.203979 230.288727,202.098724 
	C217.317673,201.811966 204.336105,201.991745 191.358734,202.011948 
	C189.893372,202.014236 188.428253,202.178238 187.058075,203.358765 
	C194.285721,204.578796 201.586563,205.488449 208.705933,207.167603 
	C211.662170,207.864853 214.865356,209.650909 214.018738,214.034454 
	C212.556213,221.606857 215.894760,226.797546 221.320175,232.082336 
	C244.915680,255.066360 268.056732,278.517456 291.314148,301.847443 
	C294.856781,305.401154 299.014069,307.310028 303.959625,306.938232 
	C307.804413,306.649109 310.967926,307.729950 313.336670,310.621216 
	C279.996368,310.990448 247.072586,310.990448 214.148804,310.990448 
	C214.149612,311.335938 214.150436,311.681458 214.151245,312.026947 
	C247.379547,312.026947 280.607849,312.026947 313.836151,312.026947 
	C310.386108,316.350861 307.197784,320.924377 303.394989,324.911896 
	C300.812592,327.619781 300.344086,330.056305 301.459290,333.584534 
	C268.059082,333.991943 235.172546,333.991943 202.000000,333.991943 
	C202.000000,360.441803 202.000000,386.220917 202.000000,412.000000 
	C157.312439,412.000000 112.624878,412.000000 67.391380,411.671021 
	C61.939548,406.498230 57.033649,401.654449 51.316128,396.009338 
	C57.567413,396.009338 62.624348,396.009338 67.821556,396.009338 
	C67.821556,394.172607 67.821556,392.745789 67.821556,391.899109 
	C65.797546,390.800171 63.644825,390.304047 62.617310,388.952454 
	C58.934750,384.108490 58.117165,384.090942 52.313782,386.826569 
	C48.786472,388.489258 44.670776,388.863678 40.889397,390.041534 
	C38.353901,390.831329 35.561344,391.534058 33.551075,393.121033 
	C29.107239,396.629028 21.512804,395.250977 18.905052,389.551056 
	C18.972931,357.173553 18.972931,325.260529 18.972931,293.000000 
	C12.600320,293.000000 6.800160,293.000000 1.000000,293.000000 
	C1.000000,292.555542 1.000000,292.111115 1.468175,291.333252 
	C7.581377,290.426117 13.562845,292.179443 18.976889,290.008057 
	C18.912872,289.338715 18.848856,288.669342 18.784842,288.000000 
	C12.856561,288.000000 6.928280,288.000000 1.000000,288.000000 
	C1.000000,250.645767 1.000000,213.291550 1.468657,175.468552 
	C15.195360,174.999786 28.453407,174.999786 41.837021,174.999786 
	C41.837021,140.562683 41.837021,106.773079 41.837021,72.983467 
	C45.825130,70.351707 49.556667,67.084953 53.899193,65.330353 
	C56.436012,64.305344 59.949078,65.696487 63.501953,66.470970 
	C63.987411,97.061867 63.993263,127.182426 64.002083,157.302979 
	C64.002518,158.800415 63.523376,160.570236 64.151993,161.736511 
	C65.328049,163.918442 67.131943,167.420486 68.712296,167.440796 
	C75.800644,167.531815 75.990700,166.988403 75.999123,160.878876 
	C76.037201,133.256027 76.073341,105.633171 76.110176,78.010323 
	C79.186325,77.679306 82.406921,76.626923 85.300766,77.206360 
	C88.649574,77.876884 92.483299,79.270508 94.687637,81.659424 
	C97.063866,84.234627 99.362915,83.978645 102.010239,83.990295 
	C108.673393,84.019623 115.336754,84.000931 122.492477,84.475998 
	C122.984924,117.786507 122.984924,150.622498 122.984924,183.143936 
	C127.754066,183.143936 131.338409,183.143936 134.949432,183.598785 
	C134.976105,187.835693 134.976105,191.617737 134.976105,196.046631 
	C169.017319,196.046631 202.429428,196.046631 235.841537,196.046631 
M179.265823,241.991592 
	C175.110901,240.234589 170.955994,238.477585 166.277695,236.499268 
	C166.379761,237.891739 166.316666,239.276520 166.508240,239.312714 
	C170.225204,240.014679 170.630341,242.701385 171.396530,245.803421 
	C171.737457,247.183640 174.946869,248.876007 176.662003,248.686462 
	C180.384628,248.275055 180.060593,244.856842 180.278259,241.891098 
	C180.185913,241.927399 180.093567,241.963684 179.265823,241.991592 
M140.884537,352.704895 
	C140.268356,350.534241 140.284622,347.357819 138.864868,346.465118 
	C137.328842,345.499268 134.452576,346.664856 132.160843,346.900818 
	C132.058792,347.583221 131.956726,348.265594 131.854660,348.947998 
	C134.745117,350.420013 137.635574,351.891998 140.884537,352.704895 
M181.936249,247.563782 
	C181.756195,247.409744 181.576141,247.255722 181.396088,247.101685 
	C181.295181,247.232834 181.106155,247.363861 181.105957,247.495178 
	C181.092072,256.348969 181.093369,265.202789 181.093369,274.056610 
	C181.393173,274.055969 181.692978,274.055359 181.992783,274.054718 
	C181.992783,265.488556 181.992783,256.922424 181.936249,247.563782 
z"/>
<path fill="#A6A7AC" opacity="1.000000" stroke="none" 
	d="
M202.468643,412.000000 
	C202.000000,386.220917 202.000000,360.441803 202.000000,333.991943 
	C235.172546,333.991943 268.059082,333.991943 301.403229,333.974945 
	C301.184570,335.529205 300.896240,337.485962 299.774689,338.614899 
	C276.925507,361.613892 253.980087,384.517334 231.057892,407.443817 
	C229.765656,408.736298 228.507736,410.063080 227.116928,411.686951 
	C218.979095,412.000000 210.958191,412.000000 202.468643,412.000000 
z"/>
<path fill="#B0B0B0" opacity="1.000000" stroke="none" 
	d="
M41.556839,73.236420 
	C41.837021,106.773079 41.837021,140.562683 41.837021,174.999786 
	C28.453407,174.999786 15.195360,174.999786 1.468657,174.999893 
	C1.000000,156.312439 1.000000,137.624878 1.000002,118.468658 
	C13.848314,105.318680 26.769625,92.709290 39.439182,79.851830 
	C40.801216,78.469604 40.699413,75.644936 41.556839,73.236420 
z"/>
<path fill="#FFFFFF" opacity="1.000000" stroke="none" 
	d="
M18.837172,390.015503 
	C21.512804,395.250977 29.107239,396.629028 33.551075,393.121033 
	C35.561344,391.534058 38.353901,390.831329 40.889397,390.041534 
	C44.670776,388.863678 48.786472,388.489258 52.313782,386.826569 
	C58.117165,384.090942 58.934750,384.108490 62.617310,388.952454 
	C63.644825,390.304047 65.797546,390.800171 67.821556,391.899109 
	C67.821556,392.745789 67.821556,394.172607 67.821556,396.009338 
	C62.624348,396.009338 57.567413,396.009338 51.316128,396.009338 
	C57.033649,401.654449 61.939548,406.498230 66.922722,411.671021 
	C45.088669,412.000000 23.177338,412.000000 1.000000,412.000000 
	C1.000000,397.980225 1.000000,383.958771 1.312962,369.585754 
	C3.629782,371.201813 5.762881,373.055908 7.611117,375.160248 
	C11.713600,379.831146 17.855068,382.985138 18.837172,390.015503 
z"/>
<path fill="#A8A7AB" opacity="1.000000" stroke="none" 
	d="
M18.905052,389.551056 
	C17.855068,382.985138 11.713600,379.831146 7.611117,375.160248 
	C5.762881,373.055908 3.629782,371.201813 1.312962,369.117065 
	C1.000000,343.979095 1.000000,318.958221 1.000000,293.468658 
	C6.800160,293.000000 12.600320,293.000000 18.972931,293.000000 
	C18.972931,325.260529 18.972931,357.173553 18.905052,389.551056 
z"/>
<path fill="#A8A7AB" opacity="1.000000" stroke="none" 
	d="
M1.000000,288.375000 
	C6.928280,288.000000 12.856561,288.000000 18.784842,288.000000 
	C18.848856,288.669342 18.912872,289.338715 18.976889,290.008057 
	C13.562845,292.179443 7.581377,290.426117 1.468175,290.999939 
	C1.000000,290.250000 1.000000,289.500000 1.000000,288.375000 
z"/>
<path fill="#A4A5A8" opacity="1.000000" stroke="none" 
	d="
M134.922745,183.143921 
	C131.338409,183.143936 127.754066,183.143936 122.984924,183.143936 
	C122.984924,150.622498 122.984924,117.786507 122.940155,84.483429 
	C123.410927,81.597084 124.351242,81.472672 126.075394,83.208763 
	C149.644058,106.940781 173.294098,130.592194 196.803909,154.382248 
	C201.421631,159.055008 205.577209,164.135712 214.460724,161.451080 
	C210.964096,172.317139 219.692703,176.253708 225.376434,183.239014 
	C221.025894,183.239014 217.790131,183.239014 213.871368,183.454468 
	C212.421936,183.447891 211.655441,183.031631 210.889114,183.031937 
	C186.296661,183.041290 161.704208,183.090927 136.747681,183.090118 
	C135.896637,183.078461 135.409683,183.111191 134.922745,183.143921 
z"/>
<path fill="#98999E" opacity="1.000000" stroke="none" 
	d="
M76.258789,77.675087 
	C76.073341,105.633171 76.037201,133.256027 75.999123,160.878876 
	C75.990700,166.988403 75.800644,167.531815 68.712296,167.440796 
	C67.131943,167.420486 65.328049,163.918442 64.151993,161.736511 
	C63.523376,160.570236 64.002518,158.800415 64.002083,157.302979 
	C63.993263,127.182426 63.987411,97.061867 63.928627,66.474594 
	C64.930908,64.622147 65.985527,63.236431 67.086655,61.789608 
	C72.240509,66.579041 77.121841,71.115227 82.870872,76.457756 
	C79.751602,76.883461 78.079506,77.111656 76.258789,77.675087 
z"/>
<path fill="#DF3B41" opacity="1.000000" stroke="none" 
	d="
M134.949432,183.598785 
	C135.409683,183.111191 135.896637,183.078461 137.031525,183.383362 
	C151.317459,183.720978 164.955414,183.720978 178.593384,183.720978 
	C178.680923,184.397644 178.768448,185.074310 178.855988,185.750961 
	C177.316925,186.305328 175.688538,186.696686 174.271301,187.473343 
	C173.378006,187.962845 172.599091,188.938080 172.175262,189.878571 
	C171.991364,190.286636 172.714935,191.613525 173.223068,191.741409 
	C176.677887,192.610931 180.177628,193.855423 183.676834,193.900772 
	C200.138199,194.114105 216.604050,193.979858 233.068298,193.969650 
	C233.987289,194.443314 234.906296,194.916977 235.833405,195.718643 
	C202.429428,196.046631 169.017319,196.046631 134.976105,196.046631 
	C134.976105,191.617737 134.976105,187.835693 134.949432,183.598785 
z"/>
<path fill="#FF0004" opacity="1.000000" stroke="none" 
	d="
M232.924881,193.631775 
	C216.604050,193.979858 200.138199,194.114105 183.676834,193.900772 
	C180.177628,193.855423 176.677887,192.610931 173.223068,191.741409 
	C172.714935,191.613525 171.991364,190.286636 172.175262,189.878571 
	C172.599091,188.938080 173.378006,187.962845 174.271301,187.473343 
	C175.688538,186.696686 177.316925,186.305328 178.855988,185.750961 
	C178.768448,185.074310 178.680923,184.397644 178.593384,183.720978 
	C164.955414,183.720978 151.317459,183.720978 137.395630,183.427734 
	C161.704208,183.090927 186.296661,183.041290 210.889114,183.031937 
	C211.655441,183.031631 212.421936,183.447891 213.596863,183.756241 
	C215.497391,183.894943 216.989029,183.964981 218.481476,183.996063 
	C221.663193,184.062393 224.910995,183.060974 225.538940,188.410828 
	C225.760193,190.295929 230.243912,191.680695 232.924881,193.631775 
z"/>
<path fill="#EE2327" opacity="1.000000" stroke="none" 
	d="
M313.897278,311.763428 
	C280.607849,312.026947 247.379547,312.026947 214.151245,312.026947 
	C214.150436,311.681458 214.149612,311.335938 214.148804,310.990448 
	C247.072586,310.990448 279.996368,310.990448 313.378174,310.981628 
	C313.876892,311.148529 313.917664,311.324188 313.897278,311.763428 
z"/>
<path fill="#FB0404" opacity="1.000000" stroke="none" 
	d="
M180.000000,241.998779 
	C180.060593,244.856842 180.384628,248.275055 176.662003,248.686462 
	C174.946869,248.876007 171.737457,247.183640 171.396530,245.803421 
	C170.630341,242.701385 170.225204,240.014679 166.508240,239.312714 
	C166.316666,239.276520 166.379761,237.891739 166.277695,236.499268 
	C170.955994,238.477585 175.110901,240.234589 179.632904,241.995789 
	C180.000000,242.000000 180.000000,241.998779 180.000000,241.998779 
z"/>
<path fill="#FB060F" opacity="1.000000" stroke="none" 
	d="
M140.705292,353.034454 
	C137.635574,351.891998 134.745117,350.420013 131.854660,348.947998 
	C131.956726,348.265594 132.058792,347.583221 132.160843,346.900818 
	C134.452576,346.664856 137.328842,345.499268 138.864868,346.465118 
	C140.284622,347.357819 140.268356,350.534241 140.705292,353.034454 
z"/>
<path fill="#E03D41" opacity="1.000000" stroke="none" 
	d="
M181.964508,247.960022 
	C181.992783,256.922424 181.992783,265.488556 181.992783,274.054718 
	C181.692978,274.055359 181.393173,274.055969 181.093369,274.056610 
	C181.093369,265.202789 181.092072,256.348969 181.105957,247.495178 
	C181.106155,247.363861 181.295181,247.232834 181.396088,247.101685 
	C181.576141,247.255722 181.756195,247.409744 181.964508,247.960022 
z"/>
<path fill="#FE080C" opacity="1.000000" stroke="none" 
	d="
M180.000610,242.000000 
	C180.093567,241.963684 180.185913,241.927399 180.139130,241.944946 
	C180.000000,241.998779 180.000000,242.000000 180.000610,242.000000 
z"/>
</svg>