<svg version="1.1" id="Layer_1" xmlns="http://www.w3.org/2000/svg" xmlns:xlink="http://www.w3.org/1999/xlink" x="0px" y="0px"
	 width="100%" viewBox="0 0 588 411" enable-background="new 0 0 588 411" xml:space="preserve">
<path fill="#FFFFFF" opacity="1.000000" stroke="none" 
	d="
M179.000000,412.000000 
	C119.681343,412.000000 60.362694,412.000000 1.022020,412.000000 
	C1.022020,275.048584 1.022020,138.097153 1.022020,1.072865 
	C196.902908,1.072865 392.805847,1.072865 588.854370,1.072865 
	C588.854370,137.999893 588.854370,274.999939 588.854370,412.000000 
	C533.239990,412.000000 477.586975,412.000000 421.581604,411.685913 
	C449.201569,383.563141 477.173889,355.754425 505.758087,327.337402 
	C503.738770,325.699219 502.197510,324.659882 500.906097,323.370361 
	C470.376923,292.885559 439.865936,262.382507 409.396393,231.838135 
	C408.055878,230.494354 407.139069,228.727905 406.487610,227.090469 
	C415.814728,227.022629 424.679169,227.022629 434.566986,227.022629 
	C418.950592,211.421646 404.423615,196.510788 389.406616,182.110916 
	C383.730255,176.667816 379.278534,171.418854 380.874390,162.946701 
	C381.088043,161.812424 379.941223,159.853622 378.855865,159.133545 
	C370.792999,153.784241 363.267731,147.979218 358.950775,138.665070 
	C358.571564,138.336639 358.270844,138.250412 357.548462,138.094467 
	C352.714508,137.150635 348.328339,135.750153 343.883545,135.529343 
	C337.666473,135.220459 331.405670,135.791199 325.013489,136.290649 
	C322.561890,139.044754 320.260345,141.493820 317.599731,143.961060 
	C314.159485,140.987747 311.105438,137.967545 307.985260,135.017319 
	C306.500488,133.613419 304.936981,131.272217 303.327606,131.201111 
	C297.063110,130.924286 292.678528,127.924576 288.789673,123.381813 
	C285.992889,120.114754 282.387939,117.509285 279.778625,114.119751 
	C276.630676,110.030525 273.260162,108.963890 268.511841,110.937943 
	C262.347198,113.500809 257.378021,111.800362 253.749359,105.739807 
	C252.468277,105.632378 251.304916,105.843964 249.991379,106.359718 
	C249.368652,107.126579 248.844238,107.547394 248.431671,108.058495 
	C244.697647,112.684235 240.616806,115.750145 234.090225,113.167038 
	C232.295273,112.456642 229.703552,113.533997 227.539017,114.049576 
	C225.578903,114.516457 223.725479,115.413246 221.784698,115.983208 
	C218.102020,117.064743 214.275421,117.755486 210.722519,119.152527 
	C206.990021,120.620201 203.552185,122.819412 199.904785,124.526260 
	C195.973907,126.365776 191.298553,127.314194 191.750397,133.322693 
	C191.809662,134.110718 190.390717,135.077133 189.554474,135.850693 
	C188.021759,137.268524 186.412994,138.604111 184.617462,139.991089 
	C184.399002,140.008224 183.964874,140.068329 183.604340,140.051849 
	C181.310928,141.708801 179.266357,143.270386 177.461746,145.072281 
	C146.799927,175.688004 116.159561,206.325256 85.563232,237.006393 
	C84.471687,238.100983 83.880585,239.694626 83.123474,241.362625 
	C84.121239,242.500870 85.051765,243.332169 86.142654,244.467529 
	C85.886063,246.330978 85.577515,247.929642 85.029968,249.441757 
	C83.825684,252.767532 81.194977,256.193542 81.539093,259.314850 
	C82.022942,263.703613 80.085358,264.913574 76.935310,266.000854 
	C70.291222,268.294220 63.637318,270.559113 56.621033,272.912231 
	C50.478100,275.601898 43.848679,277.291412 43.114574,285.316864 
	C43.063290,285.877563 42.457058,286.387512 41.994553,287.200500 
	C43.105598,289.005249 44.201118,290.660187 45.575451,292.036774 
	C76.374863,322.885834 107.208878,353.700409 138.016418,384.541412 
	C139.408813,385.935333 140.614120,387.516083 142.110413,389.370911 
	C145.996109,390.059357 149.717926,390.152069 153.350220,390.770538 
	C158.480377,391.644043 163.655441,392.561462 168.588898,394.150543 
	C170.988968,394.923615 172.884644,397.262573 174.586456,398.933594 
	C171.987335,398.974518 169.810425,398.974518 166.818192,398.974518 
	C171.405136,403.879150 175.202560,407.939575 179.000000,412.000000 
z"/>
<path fill="#8300FF" opacity="1.000000" stroke="none" 
	d="
M253.867096,106.058830 
	C257.378021,111.800362 262.347198,113.500809 268.511841,110.937943 
	C273.260162,108.963890 276.630676,110.030525 279.778625,114.119751 
	C282.387939,117.509285 285.992889,120.114754 288.789673,123.381813 
	C292.678528,127.924576 297.063110,130.924286 303.327606,131.201111 
	C304.936981,131.272217 306.500488,133.613419 307.985260,135.017319 
	C311.105438,137.967545 314.159485,140.987747 317.615143,144.432632 
	C317.989624,175.422195 317.989624,205.958374 317.989624,236.683731 
	C320.940033,236.683731 323.173187,236.683731 325.682526,236.683731 
	C325.804352,235.275772 325.985840,234.152908 325.986420,233.029938 
	C326.002136,201.931824 326.009186,170.833710 325.964539,139.735657 
	C325.962738,138.485260 325.442322,137.235611 325.163574,135.985596 
	C331.405670,135.791199 337.666473,135.220459 343.883545,135.529343 
	C348.328339,135.750153 352.714508,137.150635 357.557861,138.552063 
	C357.988922,171.967331 357.988922,204.855270 357.988922,237.743210 
	C358.335693,237.741898 358.682465,237.740585 359.029236,237.739273 
	C359.029236,204.795273 359.029236,171.851273 359.029236,138.907272 
	C363.267731,147.979218 370.792999,153.784241 378.855865,159.133545 
	C379.941223,159.853622 381.088043,161.812424 380.874390,162.946701 
	C379.278534,171.418854 383.730255,176.667816 389.406616,182.110916 
	C404.423615,196.510788 418.950592,211.421646 434.566986,227.022629 
	C424.679169,227.022629 415.814728,227.022629 406.060181,227.035034 
	C404.446747,228.695511 403.098602,230.341187 403.092316,231.991989 
	C402.965271,265.364502 402.989624,298.737640 402.989227,332.110626 
	C402.988892,358.740417 402.996124,385.370209 403.000000,412.000000 
	C398.643097,412.000000 394.286194,412.000000 389.464661,411.531342 
	C389.000000,384.091339 389.000000,357.119965 389.000000,330.148621 
	C388.666656,330.149689 388.333344,330.150757 388.000000,330.151825 
	C388.000000,357.434540 388.000000,384.717285 388.000000,412.000000 
	C384.638702,412.000000 381.277435,412.000000 377.458069,411.531342 
	C377.000000,384.926300 377.000000,358.789886 377.000000,332.653503 
	C376.333344,332.653015 375.666656,332.652557 375.000000,332.652100 
	C375.000000,359.101379 375.000000,385.550690 375.000000,412.000000 
	C314.312439,412.000000 253.624878,412.000000 192.468582,411.531342 
	C191.999847,395.658966 191.999847,380.255219 191.999847,364.851501 
	C191.639847,364.851959 191.279846,364.852417 190.919846,364.852875 
	C190.919846,376.102325 190.919846,387.351807 190.919846,398.892670 
	C185.338730,398.892670 180.173691,398.892670 175.008652,398.892670 
	C172.884644,397.262573 170.988968,394.923615 168.588898,394.150543 
	C163.655441,392.561462 158.480377,391.644043 153.350220,390.770538 
	C149.717926,390.152069 145.996109,390.059357 142.183746,389.431824 
	C142.053253,389.131653 142.210541,389.022797 142.474838,388.704102 
	C142.824936,387.730133 142.985535,387.074890 142.985809,386.419617 
	C142.999146,354.839966 143.008469,323.260284 142.963425,291.680695 
	C142.961639,290.434937 142.426575,289.190002 141.870117,287.602051 
	C139.784882,287.172974 137.969620,287.013367 136.154144,287.010986 
	C104.805740,286.969513 73.457314,286.947388 42.108887,286.921051 
	C42.457058,286.387512 43.063290,285.877563 43.114574,285.316864 
	C43.848679,277.291412 50.478100,275.601898 57.086075,272.978149 
	C85.805153,272.967560 113.692780,272.967560 141.650162,272.967560 
	C141.650162,263.041260 141.650162,253.672333 141.650162,244.163467 
	C122.861656,244.163467 104.421974,244.163467 85.982292,244.163467 
	C85.051765,243.332169 84.121239,242.500870 83.588829,241.339355 
	C103.637947,241.006027 123.289009,240.978409 142.939804,241.038422 
	C144.871307,241.044327 146.848267,241.411285 148.723938,241.911362 
	C158.755615,244.585876 168.799057,247.280899 179.313965,245.894974 
	C180.982483,245.675064 182.468033,244.066818 184.397095,242.852432 
	C184.782639,208.394272 184.809280,174.184128 184.835922,139.973969 
	C186.412994,138.604111 188.021759,137.268524 189.554474,135.850693 
	C190.390717,135.077133 191.809662,134.110718 191.750397,133.322693 
	C191.298553,127.314194 195.973907,126.365776 199.904785,124.526260 
	C203.552185,122.819412 206.990021,120.620201 210.722519,119.152527 
	C214.275421,117.755486 218.102020,117.064743 221.784698,115.983208 
	C223.725479,115.413246 225.578903,114.516457 227.539017,114.049576 
	C229.703552,113.533997 232.295273,112.456642 234.090225,113.167038 
	C240.616806,115.750145 244.697647,112.684235 248.431671,108.058495 
	C248.844238,107.547394 249.368652,107.126579 250.319656,106.620323 
	C250.865021,138.069534 250.932098,169.562317 250.998322,201.055084 
	C251.002075,202.838654 250.998810,204.622208 250.998810,206.405777 
	C251.420502,206.448105 251.842194,206.490448 252.263885,206.532776 
	C252.508682,204.758179 252.964264,202.983871 252.966858,201.208908 
	C253.010727,171.210297 252.983963,141.211594 253.035385,111.213013 
	C253.038330,109.494484 253.577499,107.776871 253.867096,106.058830 
M205.257751,329.962799 
	C206.071640,325.796326 206.885544,321.629852 207.737152,317.270294 
	C198.535812,317.354187 196.506851,319.138580 193.842743,329.273224 
	C197.476837,329.522736 200.906540,329.758240 205.257751,329.962799 
M398.363953,299.903381 
	C392.585144,296.332428 394.028778,290.575378 394.016083,285.310944 
	C393.973694,267.688629 393.999969,250.066162 393.999939,232.443756 
	C393.999939,230.829956 393.999939,229.216156 393.999939,227.602356 
	C393.753357,227.603638 393.506744,227.604919 393.260162,227.606201 
	C393.260162,252.634277 393.260162,277.662354 393.260162,304.204529 
	C395.637634,302.624176 397.146210,301.621399 398.363953,299.903381 
M305.981171,370.996552 
	C306.819702,370.669373 307.658234,370.342194 308.496765,370.015015 
	C308.193573,369.480652 308.019287,368.761047 307.564484,368.444550 
	C305.763977,367.191498 296.036987,368.182098 294.228821,370.999451 
	C297.850464,370.999451 301.472076,370.999451 305.981171,370.996552 
M392.090607,311.898254 
	C392.989716,312.036163 394.574188,312.494720 394.682739,312.262756 
	C395.871613,309.721344 396.830231,307.072235 398.035889,303.979004 
	C395.709564,304.087219 393.999786,304.166718 392.015900,304.259003 
	C392.015900,306.820648 392.015900,308.934143 392.090607,311.898254 
M192.001312,329.632202 
	C192.001312,327.360443 192.001312,325.088715 192.001312,322.816956 
	C191.648041,322.830078 191.294769,322.843170 190.941498,322.856262 
	C190.941498,328.774658 190.941498,334.693024 190.941498,339.950592 
	C188.882889,341.115082 187.408432,341.949127 185.933960,342.783173 
	C186.081268,343.092194 186.228592,343.401245 186.375900,343.710266 
	C188.108551,343.710266 189.841217,343.710266 192.001419,343.710266 
	C192.001419,339.156342 192.001419,334.874481 192.001312,329.632202 
z"/>
<path fill="#A1A2A7" opacity="1.000000" stroke="none" 
	d="
M403.467957,412.000000 
	C402.996124,385.370209 402.988892,358.740417 402.989227,332.110626 
	C402.989624,298.737640 402.965271,265.364502 403.092316,231.991989 
	C403.098602,230.341187 404.446747,228.695511 405.597504,227.102875 
	C407.139069,228.727905 408.055878,230.494354 409.396393,231.838135 
	C439.865936,262.382507 470.376923,292.885559 500.906097,323.370361 
	C502.197510,324.659882 503.738770,325.699219 505.758087,327.337402 
	C477.173889,355.754425 449.201569,383.563141 421.114624,411.685913 
	C415.311951,412.000000 409.623932,412.000000 403.467957,412.000000 
z"/>
<path fill="#A5A6AB" opacity="1.000000" stroke="none" 
	d="
M174.586456,398.933594 
	C180.173691,398.892670 185.338730,398.892670 190.919846,398.892670 
	C190.919846,387.351807 190.919846,376.102325 190.919846,364.852875 
	C191.279846,364.852417 191.639847,364.851959 191.999847,364.851501 
	C191.999847,380.255219 191.999847,395.658966 191.999924,411.531342 
	C187.975449,412.000000 183.950912,412.000000 179.463181,412.000000 
	C175.202560,407.939575 171.405136,403.879150 166.818192,398.974518 
	C169.810425,398.974518 171.987335,398.974518 174.586456,398.933594 
z"/>
<path fill="#8C31E4" opacity="1.000000" stroke="none" 
	d="
M375.333313,412.000000 
	C375.000000,385.550690 375.000000,359.101379 375.000000,332.652100 
	C375.666656,332.652557 376.333344,332.653015 377.000000,332.653503 
	C377.000000,358.789886 377.000000,384.926300 377.000000,411.531342 
	C376.555542,412.000000 376.111115,412.000000 375.333313,412.000000 
z"/>
<path fill="#8E32E6" opacity="1.000000" stroke="none" 
	d="
M388.250000,412.000000 
	C388.000000,384.717285 388.000000,357.434540 388.000000,330.151825 
	C388.333344,330.150757 388.666656,330.149689 389.000000,330.148621 
	C389.000000,357.119965 389.000000,384.091339 389.000000,411.531342 
	C389.000000,412.000000 388.500000,412.000000 388.250000,412.000000 
z"/>
<path fill="#CECFD3" opacity="1.000000" stroke="none" 
	d="
M184.038193,243.100433 
	C182.468033,244.066818 180.982483,245.675064 179.313965,245.894974 
	C168.799057,247.280899 158.755615,244.585876 148.723938,241.911362 
	C146.848267,241.411285 144.871307,241.044327 142.939804,241.038422 
	C123.289009,240.978409 103.637947,241.006027 83.521606,241.032379 
	C83.880585,239.694626 84.471687,238.100983 85.563232,237.006393 
	C116.159561,206.325256 146.799927,175.688004 177.461746,145.072281 
	C179.266357,143.270386 181.310928,141.708801 183.617310,140.513153 
	C183.993866,172.238327 183.995972,203.485764 184.001617,234.733185 
	C184.002121,237.522278 184.025467,240.311356 184.038193,243.100433 
z"/>
<path fill="#C7C8CD" opacity="1.000000" stroke="none" 
	d="
M41.994553,287.200500 
	C73.457314,286.947388 104.805740,286.969513 136.154144,287.010986 
	C137.969620,287.013367 139.784882,287.172974 141.819733,288.072144 
	C142.026154,296.690918 141.987183,304.497009 142.004745,312.302979 
	C142.062286,337.876282 142.140366,363.449524 142.210541,389.022797 
	C142.210541,389.022797 142.053253,389.131653 141.979919,389.070740 
	C140.614120,387.516083 139.408813,385.935333 138.016418,384.541412 
	C107.208878,353.700409 76.374863,322.885834 45.575451,292.036774 
	C44.201118,290.660187 43.105598,289.005249 41.994553,287.200500 
z"/>
<path fill="#C7C8CD" opacity="1.000000" stroke="none" 
	d="
M86.142654,244.467529 
	C104.421974,244.163467 122.861656,244.163467 141.650162,244.163467 
	C141.650162,253.672333 141.650162,263.041260 141.650162,272.967560 
	C113.692780,272.967560 85.805153,272.967560 57.452477,272.901611 
	C63.637318,270.559113 70.291222,268.294220 76.935310,266.000854 
	C80.085358,264.913574 82.022942,263.703613 81.539093,259.314850 
	C81.194977,256.193542 83.825684,252.767532 85.029968,249.441757 
	C85.577515,247.929642 85.886063,246.330978 86.142654,244.467529 
z"/>
<path fill="#924CD8" opacity="1.000000" stroke="none" 
	d="
M325.013489,136.290649 
	C325.442322,137.235611 325.962738,138.485260 325.964539,139.735657 
	C326.009186,170.833710 326.002136,201.931824 325.986420,233.029938 
	C325.985840,234.152908 325.804352,235.275772 325.682526,236.683731 
	C323.173187,236.683731 320.940033,236.683731 317.989624,236.683731 
	C317.989624,205.958374 317.989624,175.422195 317.974243,144.414459 
	C320.260345,141.493820 322.561890,139.044754 325.013489,136.290649 
z"/>
<path fill="#ACADB1" opacity="1.000000" stroke="none" 
	d="
M253.749359,105.739807 
	C253.577499,107.776871 253.038330,109.494484 253.035385,111.213013 
	C252.983963,141.211594 253.010727,171.210297 252.966858,201.208908 
	C252.964264,202.983871 252.508682,204.758179 252.263885,206.532776 
	C251.842194,206.490448 251.420502,206.448105 250.998810,206.405777 
	C250.998810,204.622208 251.002075,202.838654 250.998322,201.055084 
	C250.932098,169.562317 250.865021,138.069534 250.469849,106.316162 
	C251.304916,105.843964 252.468277,105.632378 253.749359,105.739807 
z"/>
<path fill="#DEDFE3" opacity="1.000000" stroke="none" 
	d="
M184.397095,242.852448 
	C184.025467,240.311356 184.002121,237.522278 184.001617,234.733185 
	C183.995972,203.485764 183.993866,172.238327 183.977844,140.529617 
	C183.964874,140.068329 184.399002,140.008224 184.617462,139.991089 
	C184.809280,174.184128 184.782639,208.394272 184.397095,242.852448 
z"/>
<path fill="#8C2AEA" opacity="1.000000" stroke="none" 
	d="
M358.950775,138.665070 
	C359.029236,171.851273 359.029236,204.795273 359.029236,237.739273 
	C358.682465,237.740585 358.335693,237.741898 357.988922,237.743210 
	C357.988922,204.855270 357.988922,171.967331 357.979492,138.621796 
	C358.270844,138.250412 358.571564,138.336639 358.950775,138.665070 
z"/>
<path fill="#AEAFB4" opacity="1.000000" stroke="none" 
	d="
M204.796997,329.978271 
	C200.906540,329.758240 197.476837,329.522736 193.842743,329.273224 
	C196.506851,319.138580 198.535812,317.354187 207.737152,317.270294 
	C206.885544,321.629852 206.071640,325.796326 204.796997,329.978271 
z"/>
<path fill="#9658D3" opacity="1.000000" stroke="none" 
	d="
M142.474838,388.704102 
	C142.140366,363.449524 142.062286,337.876282 142.004745,312.302979 
	C141.987183,304.497009 142.026154,296.690918 142.089600,288.414795 
	C142.426575,289.190002 142.961639,290.434937 142.963425,291.680695 
	C143.008469,323.260284 142.999146,354.839966 142.985809,386.419617 
	C142.985535,387.074890 142.824936,387.730133 142.474838,388.704102 
z"/>
<path fill="#ADAEB3" opacity="1.000000" stroke="none" 
	d="
M398.509399,300.260986 
	C397.146210,301.621399 395.637634,302.624176 393.260162,304.204529 
	C393.260162,277.662354 393.260162,252.634277 393.260162,227.606201 
	C393.506744,227.604919 393.753357,227.603638 393.999939,227.602356 
	C393.999939,229.216156 393.999939,230.829956 393.999939,232.443756 
	C393.999969,250.066162 393.973694,267.688629 394.016083,285.310944 
	C394.028778,290.575378 392.585144,296.332428 398.509399,300.260986 
z"/>
<path fill="#903CE0" opacity="1.000000" stroke="none" 
	d="
M305.537415,370.997986 
	C301.472076,370.999451 297.850464,370.999451 294.228821,370.999451 
	C296.036987,368.182098 305.763977,367.191498 307.564484,368.444550 
	C308.019287,368.761047 308.193573,369.480652 308.496765,370.015015 
	C307.658234,370.342194 306.819702,370.669373 305.537415,370.997986 
z"/>
<path fill="#ADAEB3" opacity="1.000000" stroke="none" 
	d="
M392.053253,311.472961 
	C392.015900,308.934143 392.015900,306.820648 392.015900,304.259003 
	C393.999786,304.166718 395.709564,304.087219 398.035889,303.979004 
	C396.830231,307.072235 395.871613,309.721344 394.682739,312.262756 
	C394.574188,312.494720 392.989716,312.036163 392.053253,311.472961 
z"/>
<path fill="#A5A6AB" opacity="1.000000" stroke="none" 
	d="
M192.001373,330.112396 
	C192.001419,334.874481 192.001419,339.156342 192.001419,343.710266 
	C189.841217,343.710266 188.108551,343.710266 186.375900,343.710266 
	C186.228592,343.401245 186.081268,343.092194 185.933960,342.783173 
	C187.408432,341.949127 188.882889,341.115082 190.941498,339.950592 
	C190.941498,334.693024 190.941498,328.774658 190.941498,322.856262 
	C191.294769,322.843170 191.648041,322.830078 192.001312,322.816956 
	C192.001312,325.088715 192.001312,327.360443 192.001373,330.112396 
z"/>
</svg>